<mxfile host="65bd71144e">
    <diagram id="rHHu2va1yPNpD7k0PpL_" name="Page-1">
        <mxGraphModel dx="1266" dy="437" grid="1" gridSize="10" guides="1" tooltips="1" connect="1" arrows="1" fold="1" page="1" pageScale="1" pageWidth="827" pageHeight="1169" math="0" shadow="0">
            <root>
                <mxCell id="0"/>
                <mxCell id="1" parent="0"/>
                <mxCell id="19" style="edgeStyle=none;html=1;entryX=0.5;entryY=0;entryDx=0;entryDy=0;" parent="1" source="2" target="3" edge="1">
                    <mxGeometry relative="1" as="geometry"/>
                </mxCell>
                <mxCell id="20" style="edgeStyle=none;html=1;entryX=0.5;entryY=0;entryDx=0;entryDy=0;" parent="1" source="2" target="4" edge="1">
                    <mxGeometry relative="1" as="geometry"/>
                </mxCell>
                <mxCell id="21" style="edgeStyle=none;html=1;entryX=0.5;entryY=0;entryDx=0;entryDy=0;" parent="1" source="2" target="5" edge="1">
                    <mxGeometry relative="1" as="geometry"/>
                </mxCell>
                <mxCell id="2" value="4" style="rounded=1;whiteSpace=wrap;html=1;arcSize=60;strokeWidth=2;" parent="1" vertex="1">
                    <mxGeometry x="380" y="50" width="50" height="40" as="geometry"/>
                </mxCell>
                <mxCell id="22" style="edgeStyle=none;html=1;entryX=0.5;entryY=0;entryDx=0;entryDy=0;" parent="1" source="3" target="7" edge="1">
                    <mxGeometry relative="1" as="geometry"/>
                </mxCell>
                <mxCell id="23" style="edgeStyle=none;html=1;entryX=0.5;entryY=0;entryDx=0;entryDy=0;" parent="1" source="3" target="8" edge="1">
                    <mxGeometry relative="1" as="geometry"/>
                </mxCell>
                <mxCell id="24" style="edgeStyle=none;html=1;entryX=0.5;entryY=0;entryDx=0;entryDy=0;" parent="1" source="3" target="9" edge="1">
                    <mxGeometry relative="1" as="geometry"/>
                </mxCell>
                <mxCell id="3" value="3" style="rounded=1;whiteSpace=wrap;html=1;arcSize=60;strokeWidth=2;" parent="1" vertex="1">
                    <mxGeometry x="230" y="150" width="50" height="40" as="geometry"/>
                </mxCell>
                <mxCell id="25" style="edgeStyle=none;html=1;entryX=0.5;entryY=0;entryDx=0;entryDy=0;" parent="1" source="4" target="10" edge="1">
                    <mxGeometry relative="1" as="geometry"/>
                </mxCell>
                <mxCell id="26" style="edgeStyle=none;html=1;entryX=0.5;entryY=0;entryDx=0;entryDy=0;" parent="1" source="4" target="11" edge="1">
                    <mxGeometry relative="1" as="geometry"/>
                </mxCell>
                <mxCell id="27" style="edgeStyle=none;html=1;entryX=0.5;entryY=0;entryDx=0;entryDy=0;" parent="1" source="4" target="12" edge="1">
                    <mxGeometry relative="1" as="geometry"/>
                </mxCell>
                <mxCell id="4" value="2" style="rounded=1;whiteSpace=wrap;html=1;arcSize=60;strokeWidth=2;" parent="1" vertex="1">
                    <mxGeometry x="380" y="150" width="50" height="40" as="geometry"/>
                </mxCell>
                <mxCell id="28" style="edgeStyle=none;html=1;entryX=0.5;entryY=0;entryDx=0;entryDy=0;" parent="1" source="5" target="13" edge="1">
                    <mxGeometry relative="1" as="geometry"/>
                </mxCell>
                <mxCell id="29" style="edgeStyle=none;html=1;entryX=0.5;entryY=0;entryDx=0;entryDy=0;" parent="1" source="5" target="14" edge="1">
                    <mxGeometry relative="1" as="geometry"/>
                </mxCell>
                <mxCell id="30" style="edgeStyle=none;html=1;entryX=0.5;entryY=0;entryDx=0;entryDy=0;" parent="1" source="5" target="15" edge="1">
                    <mxGeometry relative="1" as="geometry"/>
                </mxCell>
                <mxCell id="5" value="1" style="rounded=1;whiteSpace=wrap;html=1;arcSize=60;strokeWidth=2;" parent="1" vertex="1">
                    <mxGeometry x="550" y="150" width="50" height="40" as="geometry"/>
                </mxCell>
                <mxCell id="31" style="edgeStyle=none;html=1;entryX=0.5;entryY=0;entryDx=0;entryDy=0;" parent="1" source="7" target="16" edge="1">
                    <mxGeometry relative="1" as="geometry"/>
                </mxCell>
                <mxCell id="32" style="edgeStyle=none;html=1;entryX=0.5;entryY=0;entryDx=0;entryDy=0;" parent="1" source="7" target="17" edge="1">
                    <mxGeometry relative="1" as="geometry"/>
                </mxCell>
                <mxCell id="33" style="edgeStyle=none;html=1;entryX=0.5;entryY=0;entryDx=0;entryDy=0;" parent="1" source="7" target="18" edge="1">
                    <mxGeometry relative="1" as="geometry"/>
                </mxCell>
                <mxCell id="7" value="2" style="rounded=1;whiteSpace=wrap;html=1;arcSize=60;strokeWidth=2;" parent="1" vertex="1">
                    <mxGeometry x="40" y="230" width="50" height="40" as="geometry"/>
                </mxCell>
                <mxCell id="37" style="edgeStyle=none;html=1;entryX=0.5;entryY=0;entryDx=0;entryDy=0;" parent="1" source="8" target="34" edge="1">
                    <mxGeometry relative="1" as="geometry"/>
                </mxCell>
                <mxCell id="38" style="edgeStyle=none;html=1;" parent="1" source="8" target="35" edge="1">
                    <mxGeometry relative="1" as="geometry"/>
                </mxCell>
                <mxCell id="39" style="edgeStyle=none;html=1;" parent="1" source="8" target="36" edge="1">
                    <mxGeometry relative="1" as="geometry"/>
                </mxCell>
                <mxCell id="8" value="1" style="rounded=1;whiteSpace=wrap;html=1;arcSize=60;strokeWidth=2;" parent="1" vertex="1">
                    <mxGeometry x="130" y="230" width="50" height="40" as="geometry"/>
                </mxCell>
                <mxCell id="9" value="0" style="rounded=1;whiteSpace=wrap;html=1;arcSize=60;strokeWidth=2;fillColor=#d5e8d4;strokeColor=#82b366;" parent="1" vertex="1">
                    <mxGeometry x="210" y="230" width="50" height="40" as="geometry"/>
                </mxCell>
                <mxCell id="43" style="edgeStyle=none;html=1;" parent="1" source="10" target="40" edge="1">
                    <mxGeometry relative="1" as="geometry"/>
                </mxCell>
                <mxCell id="44" style="edgeStyle=none;html=1;entryX=0.5;entryY=0;entryDx=0;entryDy=0;" parent="1" source="10" target="41" edge="1">
                    <mxGeometry relative="1" as="geometry"/>
                </mxCell>
                <mxCell id="45" style="edgeStyle=none;html=1;entryX=0.5;entryY=0;entryDx=0;entryDy=0;" parent="1" source="10" target="42" edge="1">
                    <mxGeometry relative="1" as="geometry"/>
                </mxCell>
                <mxCell id="10" value="1" style="rounded=1;whiteSpace=wrap;html=1;arcSize=60;strokeWidth=2;" parent="1" vertex="1">
                    <mxGeometry x="295" y="230" width="50" height="40" as="geometry"/>
                </mxCell>
                <mxCell id="11" value="0" style="rounded=1;whiteSpace=wrap;html=1;arcSize=60;strokeWidth=2;fillColor=#d5e8d4;strokeColor=#82b366;" parent="1" vertex="1">
                    <mxGeometry x="385" y="230" width="50" height="40" as="geometry"/>
                </mxCell>
                <mxCell id="12" value="-1" style="rounded=1;whiteSpace=wrap;html=1;arcSize=60;strokeWidth=2;" parent="1" vertex="1">
                    <mxGeometry x="465" y="230" width="50" height="40" as="geometry"/>
                </mxCell>
                <mxCell id="13" value="0" style="rounded=1;whiteSpace=wrap;html=1;arcSize=60;strokeWidth=2;fillColor=#d5e8d4;strokeColor=#82b366;" parent="1" vertex="1">
                    <mxGeometry x="550" y="230" width="50" height="40" as="geometry"/>
                </mxCell>
                <mxCell id="14" value="-1" style="rounded=1;whiteSpace=wrap;html=1;arcSize=60;strokeWidth=2;" parent="1" vertex="1">
                    <mxGeometry x="640" y="230" width="50" height="40" as="geometry"/>
                </mxCell>
                <mxCell id="15" value="-2" style="rounded=1;whiteSpace=wrap;html=1;arcSize=60;strokeWidth=2;" parent="1" vertex="1">
                    <mxGeometry x="720" y="230" width="50" height="40" as="geometry"/>
                </mxCell>
                <mxCell id="49" style="edgeStyle=none;html=1;entryX=0.75;entryY=0;entryDx=0;entryDy=0;" parent="1" source="16" target="46" edge="1">
                    <mxGeometry relative="1" as="geometry"/>
                </mxCell>
                <mxCell id="50" style="edgeStyle=none;html=1;entryX=0.5;entryY=0;entryDx=0;entryDy=0;" parent="1" source="16" target="47" edge="1">
                    <mxGeometry relative="1" as="geometry"/>
                </mxCell>
                <mxCell id="51" style="edgeStyle=none;html=1;entryX=0.5;entryY=0;entryDx=0;entryDy=0;" parent="1" source="16" target="48" edge="1">
                    <mxGeometry relative="1" as="geometry"/>
                </mxCell>
                <mxCell id="16" value="1" style="rounded=1;whiteSpace=wrap;html=1;arcSize=60;strokeWidth=2;" parent="1" vertex="1">
                    <mxGeometry x="-140" y="340" width="50" height="40" as="geometry"/>
                </mxCell>
                <mxCell id="17" value="0" style="rounded=1;whiteSpace=wrap;html=1;arcSize=60;strokeWidth=2;fillColor=#d5e8d4;strokeColor=#82b366;" parent="1" vertex="1">
                    <mxGeometry x="-50" y="340" width="50" height="40" as="geometry"/>
                </mxCell>
                <mxCell id="18" value="-1" style="rounded=1;whiteSpace=wrap;html=1;arcSize=60;strokeWidth=2;" parent="1" vertex="1">
                    <mxGeometry x="30" y="340" width="50" height="40" as="geometry"/>
                </mxCell>
                <mxCell id="34" value="0" style="rounded=1;whiteSpace=wrap;html=1;arcSize=60;strokeWidth=2;fillColor=#d5e8d4;strokeColor=#82b366;" parent="1" vertex="1">
                    <mxGeometry x="70" y="390" width="50" height="40" as="geometry"/>
                </mxCell>
                <mxCell id="35" value="-1" style="rounded=1;whiteSpace=wrap;html=1;arcSize=60;strokeWidth=2;" parent="1" vertex="1">
                    <mxGeometry x="130" y="390" width="50" height="40" as="geometry"/>
                </mxCell>
                <mxCell id="36" value="-2" style="rounded=1;whiteSpace=wrap;html=1;arcSize=60;strokeWidth=2;" parent="1" vertex="1">
                    <mxGeometry x="210" y="390" width="50" height="40" as="geometry"/>
                </mxCell>
                <mxCell id="40" value="0" style="rounded=1;whiteSpace=wrap;html=1;arcSize=60;strokeWidth=2;" parent="1" vertex="1">
                    <mxGeometry x="295" y="390" width="50" height="40" as="geometry"/>
                </mxCell>
                <mxCell id="41" value="-1" style="rounded=1;whiteSpace=wrap;html=1;arcSize=60;strokeWidth=2;" parent="1" vertex="1">
                    <mxGeometry x="385" y="390" width="50" height="40" as="geometry"/>
                </mxCell>
                <mxCell id="42" value="-2" style="rounded=1;whiteSpace=wrap;html=1;arcSize=60;strokeWidth=2;" parent="1" vertex="1">
                    <mxGeometry x="465" y="390" width="50" height="40" as="geometry"/>
                </mxCell>
                <mxCell id="46" value="0" style="rounded=1;whiteSpace=wrap;html=1;arcSize=60;strokeWidth=2;fillColor=#d5e8d4;strokeColor=#82b366;" parent="1" vertex="1">
                    <mxGeometry x="-270" y="400" width="50" height="40" as="geometry"/>
                </mxCell>
                <mxCell id="47" value="-1" style="rounded=1;whiteSpace=wrap;html=1;arcSize=60;strokeWidth=2;" parent="1" vertex="1">
                    <mxGeometry x="-180" y="400" width="50" height="40" as="geometry"/>
                </mxCell>
                <mxCell id="48" value="-2" style="rounded=1;whiteSpace=wrap;html=1;arcSize=60;strokeWidth=2;" parent="1" vertex="1">
                    <mxGeometry x="-100" y="400" width="50" height="40" as="geometry"/>
                </mxCell>
                <mxCell id="52" value="4 3 2 1 0" style="text;html=1;strokeColor=#6c8ebf;fillColor=#dae8fc;align=center;verticalAlign=middle;whiteSpace=wrap;rounded=0;" parent="1" vertex="1">
                    <mxGeometry x="-290" y="470" width="60" height="30" as="geometry"/>
                </mxCell>
                <mxCell id="53" value="4 3 2 0" style="text;html=1;strokeColor=#6c8ebf;fillColor=#dae8fc;align=center;verticalAlign=middle;whiteSpace=wrap;rounded=0;" parent="1" vertex="1">
                    <mxGeometry x="-40" y="390" width="60" height="30" as="geometry"/>
                </mxCell>
                <mxCell id="54" value="4 3 1 0" style="text;html=1;strokeColor=#6c8ebf;fillColor=#dae8fc;align=center;verticalAlign=middle;whiteSpace=wrap;rounded=0;" parent="1" vertex="1">
                    <mxGeometry x="60" y="440" width="60" height="30" as="geometry"/>
                </mxCell>
                <mxCell id="55" value="4 3 0" style="text;html=1;strokeColor=#6c8ebf;fillColor=#dae8fc;align=center;verticalAlign=middle;whiteSpace=wrap;rounded=0;" parent="1" vertex="1">
                    <mxGeometry x="225" y="290" width="60" height="30" as="geometry"/>
                </mxCell>
                <mxCell id="56" value="4 2 0" style="text;html=1;strokeColor=#6c8ebf;fillColor=#dae8fc;align=center;verticalAlign=middle;whiteSpace=wrap;rounded=0;" parent="1" vertex="1">
                    <mxGeometry x="400" y="280" width="60" height="30" as="geometry"/>
                </mxCell>
                <mxCell id="57" value="4 1 0" style="text;html=1;strokeColor=#6c8ebf;fillColor=#dae8fc;align=center;verticalAlign=middle;whiteSpace=wrap;rounded=0;" parent="1" vertex="1">
                    <mxGeometry x="550" y="280" width="60" height="30" as="geometry"/>
                </mxCell>
            </root>
        </mxGraphModel>
    </diagram>
    <diagram id="zeF4yMMH7E4ywExoStnl" name="Page-2">
        <mxGraphModel dx="439" dy="437" grid="1" gridSize="10" guides="1" tooltips="1" connect="1" arrows="1" fold="1" page="1" pageScale="1" pageWidth="827" pageHeight="1169" math="0" shadow="0">
            <root>
                <mxCell id="6RgzFG-TQh8fWDbP9MOi-0"/>
                <mxCell id="6RgzFG-TQh8fWDbP9MOi-1" parent="6RgzFG-TQh8fWDbP9MOi-0"/>
                <mxCell id="6RgzFG-TQh8fWDbP9MOi-2" value="" style="shape=table;startSize=0;container=1;collapsible=0;childLayout=tableLayout;" parent="6RgzFG-TQh8fWDbP9MOi-1" vertex="1">
                    <mxGeometry x="280" y="170" width="400" height="307" as="geometry"/>
                </mxCell>
                <mxCell id="6RgzFG-TQh8fWDbP9MOi-3" value="" style="shape=partialRectangle;collapsible=0;dropTarget=0;pointerEvents=0;fillColor=none;top=0;left=0;bottom=0;right=0;points=[[0,0.5],[1,0.5]];portConstraint=eastwest;" parent="6RgzFG-TQh8fWDbP9MOi-2" vertex="1">
                    <mxGeometry width="400" height="77" as="geometry"/>
                </mxCell>
                <mxCell id="6RgzFG-TQh8fWDbP9MOi-4" value="" style="shape=partialRectangle;html=1;whiteSpace=wrap;connectable=0;overflow=hidden;fillColor=none;top=0;left=0;bottom=0;right=0;pointerEvents=1;" parent="6RgzFG-TQh8fWDbP9MOi-3" vertex="1">
                    <mxGeometry width="100" height="77" as="geometry">
                        <mxRectangle width="100" height="77" as="alternateBounds"/>
                    </mxGeometry>
                </mxCell>
                <mxCell id="6RgzFG-TQh8fWDbP9MOi-5" value="" style="shape=partialRectangle;html=1;whiteSpace=wrap;connectable=0;overflow=hidden;fillColor=none;top=0;left=0;bottom=0;right=0;pointerEvents=1;" parent="6RgzFG-TQh8fWDbP9MOi-3" vertex="1">
                    <mxGeometry x="100" width="100" height="77" as="geometry">
                        <mxRectangle width="100" height="77" as="alternateBounds"/>
                    </mxGeometry>
                </mxCell>
                <mxCell id="6RgzFG-TQh8fWDbP9MOi-6" value="" style="shape=partialRectangle;html=1;whiteSpace=wrap;connectable=0;overflow=hidden;fillColor=none;top=0;left=0;bottom=0;right=0;pointerEvents=1;" parent="6RgzFG-TQh8fWDbP9MOi-3" vertex="1">
                    <mxGeometry x="200" width="100" height="77" as="geometry">
                        <mxRectangle width="100" height="77" as="alternateBounds"/>
                    </mxGeometry>
                </mxCell>
                <mxCell id="6RgzFG-TQh8fWDbP9MOi-17" style="shape=partialRectangle;html=1;whiteSpace=wrap;connectable=0;overflow=hidden;fillColor=none;top=0;left=0;bottom=0;right=0;pointerEvents=1;" parent="6RgzFG-TQh8fWDbP9MOi-3" vertex="1">
                    <mxGeometry x="300" width="100" height="77" as="geometry">
                        <mxRectangle width="100" height="77" as="alternateBounds"/>
                    </mxGeometry>
                </mxCell>
                <mxCell id="6RgzFG-TQh8fWDbP9MOi-7" value="" style="shape=partialRectangle;collapsible=0;dropTarget=0;pointerEvents=0;fillColor=none;top=0;left=0;bottom=0;right=0;points=[[0,0.5],[1,0.5]];portConstraint=eastwest;" parent="6RgzFG-TQh8fWDbP9MOi-2" vertex="1">
                    <mxGeometry y="77" width="400" height="76" as="geometry"/>
                </mxCell>
                <mxCell id="6RgzFG-TQh8fWDbP9MOi-8" value="" style="shape=partialRectangle;html=1;whiteSpace=wrap;connectable=0;overflow=hidden;fillColor=none;top=0;left=0;bottom=0;right=0;pointerEvents=1;" parent="6RgzFG-TQh8fWDbP9MOi-7" vertex="1">
                    <mxGeometry width="100" height="76" as="geometry">
                        <mxRectangle width="100" height="76" as="alternateBounds"/>
                    </mxGeometry>
                </mxCell>
                <mxCell id="6RgzFG-TQh8fWDbP9MOi-9" value="" style="shape=partialRectangle;html=1;whiteSpace=wrap;connectable=0;overflow=hidden;fillColor=none;top=0;left=0;bottom=0;right=0;pointerEvents=1;" parent="6RgzFG-TQh8fWDbP9MOi-7" vertex="1">
                    <mxGeometry x="100" width="100" height="76" as="geometry">
                        <mxRectangle width="100" height="76" as="alternateBounds"/>
                    </mxGeometry>
                </mxCell>
                <mxCell id="6RgzFG-TQh8fWDbP9MOi-10" value="" style="shape=partialRectangle;html=1;whiteSpace=wrap;connectable=0;overflow=hidden;fillColor=none;top=0;left=0;bottom=0;right=0;pointerEvents=1;" parent="6RgzFG-TQh8fWDbP9MOi-7" vertex="1">
                    <mxGeometry x="200" width="100" height="76" as="geometry">
                        <mxRectangle width="100" height="76" as="alternateBounds"/>
                    </mxGeometry>
                </mxCell>
                <mxCell id="6RgzFG-TQh8fWDbP9MOi-18" style="shape=partialRectangle;html=1;whiteSpace=wrap;connectable=0;overflow=hidden;fillColor=none;top=0;left=0;bottom=0;right=0;pointerEvents=1;" parent="6RgzFG-TQh8fWDbP9MOi-7" vertex="1">
                    <mxGeometry x="300" width="100" height="76" as="geometry">
                        <mxRectangle width="100" height="76" as="alternateBounds"/>
                    </mxGeometry>
                </mxCell>
                <mxCell id="6RgzFG-TQh8fWDbP9MOi-20" style="shape=partialRectangle;collapsible=0;dropTarget=0;pointerEvents=0;fillColor=none;top=0;left=0;bottom=0;right=0;points=[[0,0.5],[1,0.5]];portConstraint=eastwest;" parent="6RgzFG-TQh8fWDbP9MOi-2" vertex="1">
                    <mxGeometry y="153" width="400" height="77" as="geometry"/>
                </mxCell>
                <mxCell id="6RgzFG-TQh8fWDbP9MOi-21" style="shape=partialRectangle;html=1;whiteSpace=wrap;connectable=0;overflow=hidden;fillColor=none;top=0;left=0;bottom=0;right=0;pointerEvents=1;" parent="6RgzFG-TQh8fWDbP9MOi-20" vertex="1">
                    <mxGeometry width="100" height="77" as="geometry">
                        <mxRectangle width="100" height="77" as="alternateBounds"/>
                    </mxGeometry>
                </mxCell>
                <mxCell id="6RgzFG-TQh8fWDbP9MOi-22" style="shape=partialRectangle;html=1;whiteSpace=wrap;connectable=0;overflow=hidden;fillColor=none;top=0;left=0;bottom=0;right=0;pointerEvents=1;" parent="6RgzFG-TQh8fWDbP9MOi-20" vertex="1">
                    <mxGeometry x="100" width="100" height="77" as="geometry">
                        <mxRectangle width="100" height="77" as="alternateBounds"/>
                    </mxGeometry>
                </mxCell>
                <mxCell id="6RgzFG-TQh8fWDbP9MOi-23" style="shape=partialRectangle;html=1;whiteSpace=wrap;connectable=0;overflow=hidden;fillColor=none;top=0;left=0;bottom=0;right=0;pointerEvents=1;" parent="6RgzFG-TQh8fWDbP9MOi-20" vertex="1">
                    <mxGeometry x="200" width="100" height="77" as="geometry">
                        <mxRectangle width="100" height="77" as="alternateBounds"/>
                    </mxGeometry>
                </mxCell>
                <mxCell id="6RgzFG-TQh8fWDbP9MOi-24" style="shape=partialRectangle;html=1;whiteSpace=wrap;connectable=0;overflow=hidden;fillColor=none;top=0;left=0;bottom=0;right=0;pointerEvents=1;" parent="6RgzFG-TQh8fWDbP9MOi-20" vertex="1">
                    <mxGeometry x="300" width="100" height="77" as="geometry">
                        <mxRectangle width="100" height="77" as="alternateBounds"/>
                    </mxGeometry>
                </mxCell>
                <mxCell id="6RgzFG-TQh8fWDbP9MOi-11" value="" style="shape=partialRectangle;collapsible=0;dropTarget=0;pointerEvents=0;fillColor=none;top=0;left=0;bottom=0;right=0;points=[[0,0.5],[1,0.5]];portConstraint=eastwest;" parent="6RgzFG-TQh8fWDbP9MOi-2" vertex="1">
                    <mxGeometry y="230" width="400" height="77" as="geometry"/>
                </mxCell>
                <mxCell id="6RgzFG-TQh8fWDbP9MOi-12" value="" style="shape=partialRectangle;html=1;whiteSpace=wrap;connectable=0;overflow=hidden;fillColor=none;top=0;left=0;bottom=0;right=0;pointerEvents=1;" parent="6RgzFG-TQh8fWDbP9MOi-11" vertex="1">
                    <mxGeometry width="100" height="77" as="geometry">
                        <mxRectangle width="100" height="77" as="alternateBounds"/>
                    </mxGeometry>
                </mxCell>
                <mxCell id="6RgzFG-TQh8fWDbP9MOi-13" value="" style="shape=partialRectangle;html=1;whiteSpace=wrap;connectable=0;overflow=hidden;fillColor=none;top=0;left=0;bottom=0;right=0;pointerEvents=1;" parent="6RgzFG-TQh8fWDbP9MOi-11" vertex="1">
                    <mxGeometry x="100" width="100" height="77" as="geometry">
                        <mxRectangle width="100" height="77" as="alternateBounds"/>
                    </mxGeometry>
                </mxCell>
                <mxCell id="6RgzFG-TQh8fWDbP9MOi-14" value="" style="shape=partialRectangle;html=1;whiteSpace=wrap;connectable=0;overflow=hidden;fillColor=none;top=0;left=0;bottom=0;right=0;pointerEvents=1;" parent="6RgzFG-TQh8fWDbP9MOi-11" vertex="1">
                    <mxGeometry x="200" width="100" height="77" as="geometry">
                        <mxRectangle width="100" height="77" as="alternateBounds"/>
                    </mxGeometry>
                </mxCell>
                <mxCell id="6RgzFG-TQh8fWDbP9MOi-19" style="shape=partialRectangle;html=1;whiteSpace=wrap;connectable=0;overflow=hidden;fillColor=none;top=0;left=0;bottom=0;right=0;pointerEvents=1;" parent="6RgzFG-TQh8fWDbP9MOi-11" vertex="1">
                    <mxGeometry x="300" width="100" height="77" as="geometry">
                        <mxRectangle width="100" height="77" as="alternateBounds"/>
                    </mxGeometry>
                </mxCell>
                <mxCell id="6RgzFG-TQh8fWDbP9MOi-25" value="" style="endArrow=classic;html=1;strokeWidth=4;fillColor=#e1d5e7;strokeColor=#9673a6;" parent="6RgzFG-TQh8fWDbP9MOi-1" edge="1">
                    <mxGeometry width="50" height="50" relative="1" as="geometry">
                        <mxPoint x="314" y="180" as="sourcePoint"/>
                        <mxPoint x="414" y="180" as="targetPoint"/>
                    </mxGeometry>
                </mxCell>
                <mxCell id="6RgzFG-TQh8fWDbP9MOi-28" value="1 Jump" style="edgeLabel;html=1;align=center;verticalAlign=middle;resizable=0;points=[];" parent="6RgzFG-TQh8fWDbP9MOi-25" vertex="1" connectable="0">
                    <mxGeometry x="-0.1361" y="1" relative="1" as="geometry">
                        <mxPoint as="offset"/>
                    </mxGeometry>
                </mxCell>
                <mxCell id="6RgzFG-TQh8fWDbP9MOi-26" value="" style="endArrow=classic;html=1;strokeWidth=4;fillColor=#e1d5e7;strokeColor=#9673a6;" parent="6RgzFG-TQh8fWDbP9MOi-1" edge="1">
                    <mxGeometry width="50" height="50" relative="1" as="geometry">
                        <mxPoint x="340" y="190" as="sourcePoint"/>
                        <mxPoint x="540" y="190" as="targetPoint"/>
                    </mxGeometry>
                </mxCell>
                <mxCell id="6RgzFG-TQh8fWDbP9MOi-29" value="2 Jumps" style="edgeLabel;html=1;align=center;verticalAlign=middle;resizable=0;points=[];" parent="6RgzFG-TQh8fWDbP9MOi-26" vertex="1" connectable="0">
                    <mxGeometry x="-0.108" y="1" relative="1" as="geometry">
                        <mxPoint as="offset"/>
                    </mxGeometry>
                </mxCell>
                <mxCell id="6RgzFG-TQh8fWDbP9MOi-27" value="" style="endArrow=classic;html=1;strokeWidth=4;fillColor=#e1d5e7;strokeColor=#9673a6;" parent="6RgzFG-TQh8fWDbP9MOi-1" edge="1">
                    <mxGeometry width="50" height="50" relative="1" as="geometry">
                        <mxPoint x="360" y="203" as="sourcePoint"/>
                        <mxPoint x="620" y="203" as="targetPoint"/>
                    </mxGeometry>
                </mxCell>
                <mxCell id="6RgzFG-TQh8fWDbP9MOi-30" value="3 Jumps" style="edgeLabel;html=1;align=center;verticalAlign=middle;resizable=0;points=[];" parent="6RgzFG-TQh8fWDbP9MOi-27" vertex="1" connectable="0">
                    <mxGeometry x="-0.3523" y="4" relative="1" as="geometry">
                        <mxPoint as="offset"/>
                    </mxGeometry>
                </mxCell>
                <mxCell id="6RgzFG-TQh8fWDbP9MOi-31" value="" style="endArrow=classic;html=1;strokeWidth=4;fillColor=#f8cecc;strokeColor=#b85450;" parent="6RgzFG-TQh8fWDbP9MOi-1" edge="1">
                    <mxGeometry width="50" height="50" relative="1" as="geometry">
                        <mxPoint x="289" y="220" as="sourcePoint"/>
                        <mxPoint x="289" y="290" as="targetPoint"/>
                    </mxGeometry>
                </mxCell>
                <mxCell id="6RgzFG-TQh8fWDbP9MOi-32" value="1 Jump" style="edgeLabel;html=1;align=center;verticalAlign=middle;resizable=0;points=[];" parent="6RgzFG-TQh8fWDbP9MOi-31" vertex="1" connectable="0">
                    <mxGeometry x="-0.1361" y="1" relative="1" as="geometry">
                        <mxPoint as="offset"/>
                    </mxGeometry>
                </mxCell>
                <mxCell id="6RgzFG-TQh8fWDbP9MOi-33" value="" style="endArrow=classic;html=1;strokeWidth=4;fillColor=#f8cecc;strokeColor=#b85450;" parent="6RgzFG-TQh8fWDbP9MOi-1" edge="1">
                    <mxGeometry width="50" height="50" relative="1" as="geometry">
                        <mxPoint x="303" y="230" as="sourcePoint"/>
                        <mxPoint x="303" y="350" as="targetPoint"/>
                    </mxGeometry>
                </mxCell>
                <mxCell id="6RgzFG-TQh8fWDbP9MOi-34" value="2 Jumps" style="edgeLabel;html=1;align=center;verticalAlign=middle;resizable=0;points=[];" parent="6RgzFG-TQh8fWDbP9MOi-33" vertex="1" connectable="0">
                    <mxGeometry x="-0.1361" y="1" relative="1" as="geometry">
                        <mxPoint as="offset"/>
                    </mxGeometry>
                </mxCell>
                <mxCell id="6RgzFG-TQh8fWDbP9MOi-35" value="" style="endArrow=classic;html=1;strokeWidth=4;fillColor=#f8cecc;strokeColor=#b85450;" parent="6RgzFG-TQh8fWDbP9MOi-1" edge="1">
                    <mxGeometry width="50" height="50" relative="1" as="geometry">
                        <mxPoint x="322" y="230" as="sourcePoint"/>
                        <mxPoint x="322" y="430" as="targetPoint"/>
                    </mxGeometry>
                </mxCell>
                <mxCell id="6RgzFG-TQh8fWDbP9MOi-36" value="3 Jumps" style="edgeLabel;html=1;align=center;verticalAlign=middle;resizable=0;points=[];" parent="6RgzFG-TQh8fWDbP9MOi-35" vertex="1" connectable="0">
                    <mxGeometry x="-0.1361" y="1" relative="1" as="geometry">
                        <mxPoint as="offset"/>
                    </mxGeometry>
                </mxCell>
                <mxCell id="6RgzFG-TQh8fWDbP9MOi-37" value="" style="endArrow=classic;html=1;strokeWidth=4;fillColor=#d5e8d4;strokeColor=#82b366;" parent="6RgzFG-TQh8fWDbP9MOi-1" edge="1">
                    <mxGeometry width="50" height="50" relative="1" as="geometry">
                        <mxPoint x="340" y="240" as="sourcePoint"/>
                        <mxPoint x="410" y="290" as="targetPoint"/>
                    </mxGeometry>
                </mxCell>
                <mxCell id="6RgzFG-TQh8fWDbP9MOi-38" value="" style="endArrow=classic;html=1;strokeWidth=4;fillColor=#d5e8d4;strokeColor=#82b366;" parent="6RgzFG-TQh8fWDbP9MOi-1" edge="1">
                    <mxGeometry width="50" height="50" relative="1" as="geometry">
                        <mxPoint x="370" y="213.5" as="sourcePoint"/>
                        <mxPoint x="660" y="433.5" as="targetPoint"/>
                    </mxGeometry>
                </mxCell>
                <mxCell id="6RgzFG-TQh8fWDbP9MOi-39" value="" style="endArrow=classic;html=1;strokeWidth=4;fillColor=#d5e8d4;strokeColor=#82b366;" parent="6RgzFG-TQh8fWDbP9MOi-1" edge="1">
                    <mxGeometry width="50" height="50" relative="1" as="geometry">
                        <mxPoint x="350" y="220" as="sourcePoint"/>
                        <mxPoint x="520" y="357" as="targetPoint"/>
                    </mxGeometry>
                </mxCell>
            </root>
        </mxGraphModel>
    </diagram>
    <diagram id="jO39tgQx1NJDoKzHpXi9" name="Permutation">
        <mxGraphModel dx="2702" dy="795" grid="1" gridSize="10" guides="1" tooltips="1" connect="1" arrows="1" fold="1" page="1" pageScale="1" pageWidth="827" pageHeight="1169" math="0" shadow="0">
            <root>
                <mxCell id="3k-dXzj_LxbUhEb5cwEd-0"/>
                <mxCell id="3k-dXzj_LxbUhEb5cwEd-1" parent="3k-dXzj_LxbUhEb5cwEd-0"/>
                <mxCell id="3k-dXzj_LxbUhEb5cwEd-209" value="1" style="text;html=1;strokeColor=#d6b656;fillColor=#fff2cc;align=center;verticalAlign=middle;whiteSpace=wrap;rounded=0;fontSize=17;" vertex="1" parent="3k-dXzj_LxbUhEb5cwEd-1">
                    <mxGeometry x="957" y="220" width="40" height="30" as="geometry"/>
                </mxCell>
                <mxCell id="3k-dXzj_LxbUhEb5cwEd-210" value="2" style="text;html=1;strokeColor=#6c8ebf;fillColor=#dae8fc;align=center;verticalAlign=middle;whiteSpace=wrap;rounded=0;fontSize=17;" vertex="1" parent="3k-dXzj_LxbUhEb5cwEd-1">
                    <mxGeometry x="1007" y="220" width="40" height="30" as="geometry"/>
                </mxCell>
                <mxCell id="3k-dXzj_LxbUhEb5cwEd-211" value="" style="shape=table;startSize=0;container=1;collapsible=0;childLayout=tableLayout;fontSize=17;" vertex="1" parent="3k-dXzj_LxbUhEb5cwEd-1">
                    <mxGeometry x="957" y="280" width="240" height="40" as="geometry"/>
                </mxCell>
                <mxCell id="3k-dXzj_LxbUhEb5cwEd-212" value="" style="shape=partialRectangle;collapsible=0;dropTarget=0;pointerEvents=0;fillColor=none;top=0;left=0;bottom=0;right=0;points=[[0,0.5],[1,0.5]];portConstraint=eastwest;fontSize=17;" vertex="1" parent="3k-dXzj_LxbUhEb5cwEd-211">
                    <mxGeometry width="240" height="40" as="geometry"/>
                </mxCell>
                <mxCell id="3k-dXzj_LxbUhEb5cwEd-213" value="" style="shape=partialRectangle;html=1;whiteSpace=wrap;connectable=0;overflow=hidden;fillColor=none;top=0;left=0;bottom=0;right=0;pointerEvents=1;fontSize=17;" vertex="1" parent="3k-dXzj_LxbUhEb5cwEd-212">
                    <mxGeometry width="60" height="40" as="geometry">
                        <mxRectangle width="60" height="40" as="alternateBounds"/>
                    </mxGeometry>
                </mxCell>
                <mxCell id="3k-dXzj_LxbUhEb5cwEd-214" value="" style="shape=partialRectangle;html=1;whiteSpace=wrap;connectable=0;overflow=hidden;fillColor=none;top=0;left=0;bottom=0;right=0;pointerEvents=1;fontSize=17;" vertex="1" parent="3k-dXzj_LxbUhEb5cwEd-212">
                    <mxGeometry x="60" width="60" height="40" as="geometry">
                        <mxRectangle width="60" height="40" as="alternateBounds"/>
                    </mxGeometry>
                </mxCell>
                <mxCell id="3k-dXzj_LxbUhEb5cwEd-215" value="" style="shape=partialRectangle;html=1;whiteSpace=wrap;connectable=0;overflow=hidden;fillColor=none;top=0;left=0;bottom=0;right=0;pointerEvents=1;fontSize=17;" vertex="1" parent="3k-dXzj_LxbUhEb5cwEd-212">
                    <mxGeometry x="120" width="60" height="40" as="geometry">
                        <mxRectangle width="60" height="40" as="alternateBounds"/>
                    </mxGeometry>
                </mxCell>
                <mxCell id="3k-dXzj_LxbUhEb5cwEd-216" value="" style="shape=partialRectangle;html=1;whiteSpace=wrap;connectable=0;overflow=hidden;fillColor=none;top=0;left=0;bottom=0;right=0;pointerEvents=1;fontSize=17;" vertex="1" parent="3k-dXzj_LxbUhEb5cwEd-212">
                    <mxGeometry x="180" width="60" height="40" as="geometry">
                        <mxRectangle width="60" height="40" as="alternateBounds"/>
                    </mxGeometry>
                </mxCell>
                <mxCell id="3k-dXzj_LxbUhEb5cwEd-217" value="Items" style="text;html=1;strokeColor=none;fillColor=none;align=center;verticalAlign=middle;whiteSpace=wrap;rounded=0;fontSize=17;" vertex="1" parent="3k-dXzj_LxbUhEb5cwEd-1">
                    <mxGeometry x="827" y="220" width="60" height="30" as="geometry"/>
                </mxCell>
                <mxCell id="3k-dXzj_LxbUhEb5cwEd-218" value="Placeholders" style="text;html=1;strokeColor=none;fillColor=none;align=center;verticalAlign=middle;whiteSpace=wrap;rounded=0;fontSize=17;" vertex="1" parent="3k-dXzj_LxbUhEb5cwEd-1">
                    <mxGeometry x="827" y="285" width="60" height="30" as="geometry"/>
                </mxCell>
                <mxCell id="3k-dXzj_LxbUhEb5cwEd-380" style="edgeStyle=none;html=1;" edge="1" parent="3k-dXzj_LxbUhEb5cwEd-1" source="3k-dXzj_LxbUhEb5cwEd-219">
                    <mxGeometry relative="1" as="geometry">
                        <mxPoint x="170" y="440" as="targetPoint"/>
                    </mxGeometry>
                </mxCell>
                <mxCell id="3k-dXzj_LxbUhEb5cwEd-381" style="edgeStyle=none;html=1;" edge="1" parent="3k-dXzj_LxbUhEb5cwEd-1" source="3k-dXzj_LxbUhEb5cwEd-219">
                    <mxGeometry relative="1" as="geometry">
                        <mxPoint x="500" y="440" as="targetPoint"/>
                    </mxGeometry>
                </mxCell>
                <mxCell id="3k-dXzj_LxbUhEb5cwEd-382" style="edgeStyle=none;html=1;entryX=0.567;entryY=-0.095;entryDx=0;entryDy=0;entryPerimeter=0;" edge="1" parent="3k-dXzj_LxbUhEb5cwEd-1" source="3k-dXzj_LxbUhEb5cwEd-219" target="3k-dXzj_LxbUhEb5cwEd-238">
                    <mxGeometry relative="1" as="geometry"/>
                </mxCell>
                <mxCell id="3k-dXzj_LxbUhEb5cwEd-219" value="" style="shape=table;startSize=0;container=1;collapsible=0;childLayout=tableLayout;" vertex="1" parent="3k-dXzj_LxbUhEb5cwEd-1">
                    <mxGeometry x="500" y="320" width="240" height="40" as="geometry"/>
                </mxCell>
                <mxCell id="3k-dXzj_LxbUhEb5cwEd-220" value="" style="shape=partialRectangle;collapsible=0;dropTarget=0;pointerEvents=0;fillColor=none;top=0;left=0;bottom=0;right=0;points=[[0,0.5],[1,0.5]];portConstraint=eastwest;" vertex="1" parent="3k-dXzj_LxbUhEb5cwEd-219">
                    <mxGeometry width="240" height="40" as="geometry"/>
                </mxCell>
                <mxCell id="3k-dXzj_LxbUhEb5cwEd-221" value="" style="shape=partialRectangle;html=1;whiteSpace=wrap;connectable=0;overflow=hidden;fillColor=none;top=0;left=0;bottom=0;right=0;pointerEvents=1;" vertex="1" parent="3k-dXzj_LxbUhEb5cwEd-220">
                    <mxGeometry width="60" height="40" as="geometry">
                        <mxRectangle width="60" height="40" as="alternateBounds"/>
                    </mxGeometry>
                </mxCell>
                <mxCell id="3k-dXzj_LxbUhEb5cwEd-222" value="" style="shape=partialRectangle;html=1;whiteSpace=wrap;connectable=0;overflow=hidden;fillColor=none;top=0;left=0;bottom=0;right=0;pointerEvents=1;" vertex="1" parent="3k-dXzj_LxbUhEb5cwEd-220">
                    <mxGeometry x="60" width="60" height="40" as="geometry">
                        <mxRectangle width="60" height="40" as="alternateBounds"/>
                    </mxGeometry>
                </mxCell>
                <mxCell id="3k-dXzj_LxbUhEb5cwEd-223" value="" style="shape=partialRectangle;html=1;whiteSpace=wrap;connectable=0;overflow=hidden;fillColor=none;top=0;left=0;bottom=0;right=0;pointerEvents=1;" vertex="1" parent="3k-dXzj_LxbUhEb5cwEd-220">
                    <mxGeometry x="120" width="60" height="40" as="geometry">
                        <mxRectangle width="60" height="40" as="alternateBounds"/>
                    </mxGeometry>
                </mxCell>
                <mxCell id="3k-dXzj_LxbUhEb5cwEd-224" value="" style="shape=partialRectangle;html=1;whiteSpace=wrap;connectable=0;overflow=hidden;fillColor=none;top=0;left=0;bottom=0;right=0;pointerEvents=1;" vertex="1" parent="3k-dXzj_LxbUhEb5cwEd-220">
                    <mxGeometry x="180" width="60" height="40" as="geometry">
                        <mxRectangle width="60" height="40" as="alternateBounds"/>
                    </mxGeometry>
                </mxCell>
                <mxCell id="3k-dXzj_LxbUhEb5cwEd-225" value="" style="shape=table;startSize=0;container=1;collapsible=0;childLayout=tableLayout;" vertex="1" parent="3k-dXzj_LxbUhEb5cwEd-1">
                    <mxGeometry x="70" y="450" width="240" height="40" as="geometry"/>
                </mxCell>
                <mxCell id="3k-dXzj_LxbUhEb5cwEd-226" value="" style="shape=partialRectangle;collapsible=0;dropTarget=0;pointerEvents=0;fillColor=none;top=0;left=0;bottom=0;right=0;points=[[0,0.5],[1,0.5]];portConstraint=eastwest;" vertex="1" parent="3k-dXzj_LxbUhEb5cwEd-225">
                    <mxGeometry width="240" height="40" as="geometry"/>
                </mxCell>
                <mxCell id="3k-dXzj_LxbUhEb5cwEd-227" value="" style="shape=partialRectangle;html=1;whiteSpace=wrap;connectable=0;overflow=hidden;fillColor=none;top=0;left=0;bottom=0;right=0;pointerEvents=1;" vertex="1" parent="3k-dXzj_LxbUhEb5cwEd-226">
                    <mxGeometry width="60" height="40" as="geometry">
                        <mxRectangle width="60" height="40" as="alternateBounds"/>
                    </mxGeometry>
                </mxCell>
                <mxCell id="3k-dXzj_LxbUhEb5cwEd-228" value="" style="shape=partialRectangle;html=1;whiteSpace=wrap;connectable=0;overflow=hidden;fillColor=none;top=0;left=0;bottom=0;right=0;pointerEvents=1;" vertex="1" parent="3k-dXzj_LxbUhEb5cwEd-226">
                    <mxGeometry x="60" width="60" height="40" as="geometry">
                        <mxRectangle width="60" height="40" as="alternateBounds"/>
                    </mxGeometry>
                </mxCell>
                <mxCell id="3k-dXzj_LxbUhEb5cwEd-229" value="" style="shape=partialRectangle;html=1;whiteSpace=wrap;connectable=0;overflow=hidden;fillColor=none;top=0;left=0;bottom=0;right=0;pointerEvents=1;" vertex="1" parent="3k-dXzj_LxbUhEb5cwEd-226">
                    <mxGeometry x="120" width="60" height="40" as="geometry">
                        <mxRectangle width="60" height="40" as="alternateBounds"/>
                    </mxGeometry>
                </mxCell>
                <mxCell id="3k-dXzj_LxbUhEb5cwEd-230" value="" style="shape=partialRectangle;html=1;whiteSpace=wrap;connectable=0;overflow=hidden;fillColor=none;top=0;left=0;bottom=0;right=0;pointerEvents=1;" vertex="1" parent="3k-dXzj_LxbUhEb5cwEd-226">
                    <mxGeometry x="180" width="60" height="40" as="geometry">
                        <mxRectangle width="60" height="40" as="alternateBounds"/>
                    </mxGeometry>
                </mxCell>
                <mxCell id="3k-dXzj_LxbUhEb5cwEd-387" style="edgeStyle=none;html=1;exitX=0.695;exitY=1.023;exitDx=0;exitDy=0;exitPerimeter=0;entryX=0.836;entryY=-0.173;entryDx=0;entryDy=0;entryPerimeter=0;" edge="1" parent="3k-dXzj_LxbUhEb5cwEd-1" source="3k-dXzj_LxbUhEb5cwEd-232" target="3k-dXzj_LxbUhEb5cwEd-303">
                    <mxGeometry relative="1" as="geometry"/>
                </mxCell>
                <mxCell id="3k-dXzj_LxbUhEb5cwEd-231" value="" style="shape=table;startSize=0;container=1;collapsible=0;childLayout=tableLayout;" vertex="1" parent="3k-dXzj_LxbUhEb5cwEd-1">
                    <mxGeometry x="380" y="450" width="240" height="40" as="geometry"/>
                </mxCell>
                <mxCell id="3k-dXzj_LxbUhEb5cwEd-232" value="" style="shape=partialRectangle;collapsible=0;dropTarget=0;pointerEvents=0;fillColor=none;top=0;left=0;bottom=0;right=0;points=[[0,0.5],[1,0.5]];portConstraint=eastwest;" vertex="1" parent="3k-dXzj_LxbUhEb5cwEd-231">
                    <mxGeometry width="240" height="40" as="geometry"/>
                </mxCell>
                <mxCell id="3k-dXzj_LxbUhEb5cwEd-233" value="" style="shape=partialRectangle;html=1;whiteSpace=wrap;connectable=0;overflow=hidden;fillColor=none;top=0;left=0;bottom=0;right=0;pointerEvents=1;" vertex="1" parent="3k-dXzj_LxbUhEb5cwEd-232">
                    <mxGeometry width="60" height="40" as="geometry">
                        <mxRectangle width="60" height="40" as="alternateBounds"/>
                    </mxGeometry>
                </mxCell>
                <mxCell id="3k-dXzj_LxbUhEb5cwEd-234" value="" style="shape=partialRectangle;html=1;whiteSpace=wrap;connectable=0;overflow=hidden;fillColor=none;top=0;left=0;bottom=0;right=0;pointerEvents=1;" vertex="1" parent="3k-dXzj_LxbUhEb5cwEd-232">
                    <mxGeometry x="60" width="60" height="40" as="geometry">
                        <mxRectangle width="60" height="40" as="alternateBounds"/>
                    </mxGeometry>
                </mxCell>
                <mxCell id="3k-dXzj_LxbUhEb5cwEd-235" value="" style="shape=partialRectangle;html=1;whiteSpace=wrap;connectable=0;overflow=hidden;fillColor=none;top=0;left=0;bottom=0;right=0;pointerEvents=1;" vertex="1" parent="3k-dXzj_LxbUhEb5cwEd-232">
                    <mxGeometry x="120" width="60" height="40" as="geometry">
                        <mxRectangle width="60" height="40" as="alternateBounds"/>
                    </mxGeometry>
                </mxCell>
                <mxCell id="3k-dXzj_LxbUhEb5cwEd-236" value="" style="shape=partialRectangle;html=1;whiteSpace=wrap;connectable=0;overflow=hidden;fillColor=none;top=0;left=0;bottom=0;right=0;pointerEvents=1;" vertex="1" parent="3k-dXzj_LxbUhEb5cwEd-232">
                    <mxGeometry x="180" width="60" height="40" as="geometry">
                        <mxRectangle width="60" height="40" as="alternateBounds"/>
                    </mxGeometry>
                </mxCell>
                <mxCell id="3k-dXzj_LxbUhEb5cwEd-390" style="edgeStyle=none;html=1;entryX=0.824;entryY=-0.002;entryDx=0;entryDy=0;entryPerimeter=0;exitX=0.824;exitY=1.023;exitDx=0;exitDy=0;exitPerimeter=0;" edge="1" parent="3k-dXzj_LxbUhEb5cwEd-1" source="3k-dXzj_LxbUhEb5cwEd-238" target="3k-dXzj_LxbUhEb5cwEd-333">
                    <mxGeometry relative="1" as="geometry"/>
                </mxCell>
                <mxCell id="3k-dXzj_LxbUhEb5cwEd-391" style="edgeStyle=none;html=1;entryX=0.904;entryY=0.02;entryDx=0;entryDy=0;entryPerimeter=0;exitX=0.892;exitY=1.023;exitDx=0;exitDy=0;exitPerimeter=0;" edge="1" parent="3k-dXzj_LxbUhEb5cwEd-1" source="3k-dXzj_LxbUhEb5cwEd-238" target="3k-dXzj_LxbUhEb5cwEd-340">
                    <mxGeometry relative="1" as="geometry"/>
                </mxCell>
                <mxCell id="3k-dXzj_LxbUhEb5cwEd-237" value="" style="shape=table;startSize=0;container=1;collapsible=0;childLayout=tableLayout;" vertex="1" parent="3k-dXzj_LxbUhEb5cwEd-1">
                    <mxGeometry x="680" y="450" width="240" height="40" as="geometry"/>
                </mxCell>
                <mxCell id="3k-dXzj_LxbUhEb5cwEd-238" value="" style="shape=partialRectangle;collapsible=0;dropTarget=0;pointerEvents=0;fillColor=none;top=0;left=0;bottom=0;right=0;points=[[0,0.5],[1,0.5]];portConstraint=eastwest;" vertex="1" parent="3k-dXzj_LxbUhEb5cwEd-237">
                    <mxGeometry width="240" height="40" as="geometry"/>
                </mxCell>
                <mxCell id="3k-dXzj_LxbUhEb5cwEd-239" value="" style="shape=partialRectangle;html=1;whiteSpace=wrap;connectable=0;overflow=hidden;fillColor=none;top=0;left=0;bottom=0;right=0;pointerEvents=1;" vertex="1" parent="3k-dXzj_LxbUhEb5cwEd-238">
                    <mxGeometry width="60" height="40" as="geometry">
                        <mxRectangle width="60" height="40" as="alternateBounds"/>
                    </mxGeometry>
                </mxCell>
                <mxCell id="3k-dXzj_LxbUhEb5cwEd-240" value="" style="shape=partialRectangle;html=1;whiteSpace=wrap;connectable=0;overflow=hidden;fillColor=none;top=0;left=0;bottom=0;right=0;pointerEvents=1;" vertex="1" parent="3k-dXzj_LxbUhEb5cwEd-238">
                    <mxGeometry x="60" width="60" height="40" as="geometry">
                        <mxRectangle width="60" height="40" as="alternateBounds"/>
                    </mxGeometry>
                </mxCell>
                <mxCell id="3k-dXzj_LxbUhEb5cwEd-241" value="" style="shape=partialRectangle;html=1;whiteSpace=wrap;connectable=0;overflow=hidden;fillColor=none;top=0;left=0;bottom=0;right=0;pointerEvents=1;" vertex="1" parent="3k-dXzj_LxbUhEb5cwEd-238">
                    <mxGeometry x="120" width="60" height="40" as="geometry">
                        <mxRectangle width="60" height="40" as="alternateBounds"/>
                    </mxGeometry>
                </mxCell>
                <mxCell id="3k-dXzj_LxbUhEb5cwEd-242" value="" style="shape=partialRectangle;html=1;whiteSpace=wrap;connectable=0;overflow=hidden;fillColor=none;top=0;left=0;bottom=0;right=0;pointerEvents=1;" vertex="1" parent="3k-dXzj_LxbUhEb5cwEd-238">
                    <mxGeometry x="180" width="60" height="40" as="geometry">
                        <mxRectangle width="60" height="40" as="alternateBounds"/>
                    </mxGeometry>
                </mxCell>
                <mxCell id="3k-dXzj_LxbUhEb5cwEd-243" value="" style="shape=table;startSize=0;container=1;collapsible=0;childLayout=tableLayout;" vertex="1" parent="3k-dXzj_LxbUhEb5cwEd-1">
                    <mxGeometry x="960" y="450" width="240" height="40" as="geometry"/>
                </mxCell>
                <mxCell id="3k-dXzj_LxbUhEb5cwEd-244" value="" style="shape=partialRectangle;collapsible=0;dropTarget=0;pointerEvents=0;fillColor=none;top=0;left=0;bottom=0;right=0;points=[[0,0.5],[1,0.5]];portConstraint=eastwest;" vertex="1" parent="3k-dXzj_LxbUhEb5cwEd-243">
                    <mxGeometry width="240" height="40" as="geometry"/>
                </mxCell>
                <mxCell id="3k-dXzj_LxbUhEb5cwEd-245" value="" style="shape=partialRectangle;html=1;whiteSpace=wrap;connectable=0;overflow=hidden;fillColor=none;top=0;left=0;bottom=0;right=0;pointerEvents=1;" vertex="1" parent="3k-dXzj_LxbUhEb5cwEd-244">
                    <mxGeometry width="60" height="40" as="geometry">
                        <mxRectangle width="60" height="40" as="alternateBounds"/>
                    </mxGeometry>
                </mxCell>
                <mxCell id="3k-dXzj_LxbUhEb5cwEd-246" value="" style="shape=partialRectangle;html=1;whiteSpace=wrap;connectable=0;overflow=hidden;fillColor=none;top=0;left=0;bottom=0;right=0;pointerEvents=1;" vertex="1" parent="3k-dXzj_LxbUhEb5cwEd-244">
                    <mxGeometry x="60" width="60" height="40" as="geometry">
                        <mxRectangle width="60" height="40" as="alternateBounds"/>
                    </mxGeometry>
                </mxCell>
                <mxCell id="3k-dXzj_LxbUhEb5cwEd-247" value="" style="shape=partialRectangle;html=1;whiteSpace=wrap;connectable=0;overflow=hidden;fillColor=none;top=0;left=0;bottom=0;right=0;pointerEvents=1;" vertex="1" parent="3k-dXzj_LxbUhEb5cwEd-244">
                    <mxGeometry x="120" width="60" height="40" as="geometry">
                        <mxRectangle width="60" height="40" as="alternateBounds"/>
                    </mxGeometry>
                </mxCell>
                <mxCell id="3k-dXzj_LxbUhEb5cwEd-248" value="" style="shape=partialRectangle;html=1;whiteSpace=wrap;connectable=0;overflow=hidden;fillColor=none;top=0;left=0;bottom=0;right=0;pointerEvents=1;" vertex="1" parent="3k-dXzj_LxbUhEb5cwEd-244">
                    <mxGeometry x="180" width="60" height="40" as="geometry">
                        <mxRectangle width="60" height="40" as="alternateBounds"/>
                    </mxGeometry>
                </mxCell>
                <mxCell id="3k-dXzj_LxbUhEb5cwEd-249" value="1" style="text;html=1;strokeColor=#d6b656;fillColor=#fff2cc;align=center;verticalAlign=middle;whiteSpace=wrap;rounded=0;" vertex="1" parent="3k-dXzj_LxbUhEb5cwEd-1">
                    <mxGeometry x="1150" y="455" width="40" height="30" as="geometry"/>
                </mxCell>
                <mxCell id="3k-dXzj_LxbUhEb5cwEd-250" value="1" style="text;html=1;strokeColor=#d6b656;fillColor=#fff2cc;align=center;verticalAlign=middle;whiteSpace=wrap;rounded=0;" vertex="1" parent="3k-dXzj_LxbUhEb5cwEd-1">
                    <mxGeometry x="810" y="455" width="40" height="30" as="geometry"/>
                </mxCell>
                <mxCell id="3k-dXzj_LxbUhEb5cwEd-251" value="1" style="text;html=1;strokeColor=#d6b656;fillColor=#fff2cc;align=center;verticalAlign=middle;whiteSpace=wrap;rounded=0;" vertex="1" parent="3k-dXzj_LxbUhEb5cwEd-1">
                    <mxGeometry x="450" y="455" width="40" height="30" as="geometry"/>
                </mxCell>
                <mxCell id="3k-dXzj_LxbUhEb5cwEd-385" style="edgeStyle=none;html=1;entryX=0.998;entryY=-0.023;entryDx=0;entryDy=0;exitX=0.639;exitY=1.159;exitDx=0;exitDy=0;exitPerimeter=0;entryPerimeter=0;" edge="1" parent="3k-dXzj_LxbUhEb5cwEd-1" source="3k-dXzj_LxbUhEb5cwEd-226" target="3k-dXzj_LxbUhEb5cwEd-287">
                    <mxGeometry relative="1" as="geometry"/>
                </mxCell>
                <mxCell id="3k-dXzj_LxbUhEb5cwEd-252" value="1" style="text;html=1;strokeColor=#d6b656;fillColor=#fff2cc;align=center;verticalAlign=middle;whiteSpace=wrap;rounded=0;" vertex="1" parent="3k-dXzj_LxbUhEb5cwEd-1">
                    <mxGeometry x="80" y="454" width="40" height="30" as="geometry"/>
                </mxCell>
                <mxCell id="3k-dXzj_LxbUhEb5cwEd-253" value="" style="shape=table;startSize=0;container=1;collapsible=0;childLayout=tableLayout;" vertex="1" parent="3k-dXzj_LxbUhEb5cwEd-1">
                    <mxGeometry x="-60" y="600" width="240" height="40" as="geometry"/>
                </mxCell>
                <mxCell id="3k-dXzj_LxbUhEb5cwEd-254" value="" style="shape=partialRectangle;collapsible=0;dropTarget=0;pointerEvents=0;fillColor=none;top=0;left=0;bottom=0;right=0;points=[[0,0.5],[1,0.5]];portConstraint=eastwest;" vertex="1" parent="3k-dXzj_LxbUhEb5cwEd-253">
                    <mxGeometry width="240" height="40" as="geometry"/>
                </mxCell>
                <mxCell id="3k-dXzj_LxbUhEb5cwEd-255" value="" style="shape=partialRectangle;html=1;whiteSpace=wrap;connectable=0;overflow=hidden;fillColor=none;top=0;left=0;bottom=0;right=0;pointerEvents=1;" vertex="1" parent="3k-dXzj_LxbUhEb5cwEd-254">
                    <mxGeometry width="60" height="40" as="geometry">
                        <mxRectangle width="60" height="40" as="alternateBounds"/>
                    </mxGeometry>
                </mxCell>
                <mxCell id="3k-dXzj_LxbUhEb5cwEd-256" value="" style="shape=partialRectangle;html=1;whiteSpace=wrap;connectable=0;overflow=hidden;fillColor=none;top=0;left=0;bottom=0;right=0;pointerEvents=1;" vertex="1" parent="3k-dXzj_LxbUhEb5cwEd-254">
                    <mxGeometry x="60" width="60" height="40" as="geometry">
                        <mxRectangle width="60" height="40" as="alternateBounds"/>
                    </mxGeometry>
                </mxCell>
                <mxCell id="3k-dXzj_LxbUhEb5cwEd-257" value="" style="shape=partialRectangle;html=1;whiteSpace=wrap;connectable=0;overflow=hidden;fillColor=none;top=0;left=0;bottom=0;right=0;pointerEvents=1;" vertex="1" parent="3k-dXzj_LxbUhEb5cwEd-254">
                    <mxGeometry x="120" width="60" height="40" as="geometry">
                        <mxRectangle width="60" height="40" as="alternateBounds"/>
                    </mxGeometry>
                </mxCell>
                <mxCell id="3k-dXzj_LxbUhEb5cwEd-258" value="" style="shape=partialRectangle;html=1;whiteSpace=wrap;connectable=0;overflow=hidden;fillColor=none;top=0;left=0;bottom=0;right=0;pointerEvents=1;" vertex="1" parent="3k-dXzj_LxbUhEb5cwEd-254">
                    <mxGeometry x="180" width="60" height="40" as="geometry">
                        <mxRectangle width="60" height="40" as="alternateBounds"/>
                    </mxGeometry>
                </mxCell>
                <mxCell id="3k-dXzj_LxbUhEb5cwEd-280" value="1" style="text;html=1;strokeColor=#d6b656;fillColor=#fff2cc;align=center;verticalAlign=middle;whiteSpace=wrap;rounded=0;" vertex="1" parent="3k-dXzj_LxbUhEb5cwEd-1">
                    <mxGeometry x="-50" y="606" width="40" height="30" as="geometry"/>
                </mxCell>
                <mxCell id="3k-dXzj_LxbUhEb5cwEd-285" value="2" style="text;html=1;strokeColor=#6c8ebf;fillColor=#dae8fc;align=center;verticalAlign=middle;whiteSpace=wrap;rounded=0;" vertex="1" parent="3k-dXzj_LxbUhEb5cwEd-1">
                    <mxGeometry x="10" y="606" width="40" height="30" as="geometry"/>
                </mxCell>
                <mxCell id="3k-dXzj_LxbUhEb5cwEd-286" value="" style="shape=table;startSize=0;container=1;collapsible=0;childLayout=tableLayout;" vertex="1" parent="3k-dXzj_LxbUhEb5cwEd-1">
                    <mxGeometry x="-40" y="650" width="240" height="40" as="geometry"/>
                </mxCell>
                <mxCell id="3k-dXzj_LxbUhEb5cwEd-287" value="" style="shape=partialRectangle;collapsible=0;dropTarget=0;pointerEvents=0;fillColor=none;top=0;left=0;bottom=0;right=0;points=[[0,0.5],[1,0.5]];portConstraint=eastwest;" vertex="1" parent="3k-dXzj_LxbUhEb5cwEd-286">
                    <mxGeometry width="240" height="40" as="geometry"/>
                </mxCell>
                <mxCell id="3k-dXzj_LxbUhEb5cwEd-288" value="" style="shape=partialRectangle;html=1;whiteSpace=wrap;connectable=0;overflow=hidden;fillColor=none;top=0;left=0;bottom=0;right=0;pointerEvents=1;" vertex="1" parent="3k-dXzj_LxbUhEb5cwEd-287">
                    <mxGeometry width="60" height="40" as="geometry">
                        <mxRectangle width="60" height="40" as="alternateBounds"/>
                    </mxGeometry>
                </mxCell>
                <mxCell id="3k-dXzj_LxbUhEb5cwEd-289" value="" style="shape=partialRectangle;html=1;whiteSpace=wrap;connectable=0;overflow=hidden;fillColor=none;top=0;left=0;bottom=0;right=0;pointerEvents=1;" vertex="1" parent="3k-dXzj_LxbUhEb5cwEd-287">
                    <mxGeometry x="60" width="60" height="40" as="geometry">
                        <mxRectangle width="60" height="40" as="alternateBounds"/>
                    </mxGeometry>
                </mxCell>
                <mxCell id="3k-dXzj_LxbUhEb5cwEd-290" value="" style="shape=partialRectangle;html=1;whiteSpace=wrap;connectable=0;overflow=hidden;fillColor=none;top=0;left=0;bottom=0;right=0;pointerEvents=1;" vertex="1" parent="3k-dXzj_LxbUhEb5cwEd-287">
                    <mxGeometry x="120" width="60" height="40" as="geometry">
                        <mxRectangle width="60" height="40" as="alternateBounds"/>
                    </mxGeometry>
                </mxCell>
                <mxCell id="3k-dXzj_LxbUhEb5cwEd-291" value="" style="shape=partialRectangle;html=1;whiteSpace=wrap;connectable=0;overflow=hidden;fillColor=none;top=0;left=0;bottom=0;right=0;pointerEvents=1;" vertex="1" parent="3k-dXzj_LxbUhEb5cwEd-287">
                    <mxGeometry x="180" width="60" height="40" as="geometry">
                        <mxRectangle width="60" height="40" as="alternateBounds"/>
                    </mxGeometry>
                </mxCell>
                <mxCell id="3k-dXzj_LxbUhEb5cwEd-292" value="1" style="text;html=1;strokeColor=#d6b656;fillColor=#fff2cc;align=center;verticalAlign=middle;whiteSpace=wrap;rounded=0;" vertex="1" parent="3k-dXzj_LxbUhEb5cwEd-1">
                    <mxGeometry x="-30" y="656" width="40" height="30" as="geometry"/>
                </mxCell>
                <mxCell id="3k-dXzj_LxbUhEb5cwEd-293" value="2" style="text;html=1;strokeColor=#6c8ebf;fillColor=#dae8fc;align=center;verticalAlign=middle;whiteSpace=wrap;rounded=0;" vertex="1" parent="3k-dXzj_LxbUhEb5cwEd-1">
                    <mxGeometry x="90" y="655" width="40" height="30" as="geometry"/>
                </mxCell>
                <mxCell id="3k-dXzj_LxbUhEb5cwEd-294" value="" style="shape=table;startSize=0;container=1;collapsible=0;childLayout=tableLayout;" vertex="1" parent="3k-dXzj_LxbUhEb5cwEd-1">
                    <mxGeometry y="700" width="240" height="40" as="geometry"/>
                </mxCell>
                <mxCell id="3k-dXzj_LxbUhEb5cwEd-295" value="" style="shape=partialRectangle;collapsible=0;dropTarget=0;pointerEvents=0;fillColor=none;top=0;left=0;bottom=0;right=0;points=[[0,0.5],[1,0.5]];portConstraint=eastwest;" vertex="1" parent="3k-dXzj_LxbUhEb5cwEd-294">
                    <mxGeometry width="240" height="40" as="geometry"/>
                </mxCell>
                <mxCell id="3k-dXzj_LxbUhEb5cwEd-296" value="" style="shape=partialRectangle;html=1;whiteSpace=wrap;connectable=0;overflow=hidden;fillColor=none;top=0;left=0;bottom=0;right=0;pointerEvents=1;" vertex="1" parent="3k-dXzj_LxbUhEb5cwEd-295">
                    <mxGeometry width="60" height="40" as="geometry">
                        <mxRectangle width="60" height="40" as="alternateBounds"/>
                    </mxGeometry>
                </mxCell>
                <mxCell id="3k-dXzj_LxbUhEb5cwEd-297" value="" style="shape=partialRectangle;html=1;whiteSpace=wrap;connectable=0;overflow=hidden;fillColor=none;top=0;left=0;bottom=0;right=0;pointerEvents=1;" vertex="1" parent="3k-dXzj_LxbUhEb5cwEd-295">
                    <mxGeometry x="60" width="60" height="40" as="geometry">
                        <mxRectangle width="60" height="40" as="alternateBounds"/>
                    </mxGeometry>
                </mxCell>
                <mxCell id="3k-dXzj_LxbUhEb5cwEd-298" value="" style="shape=partialRectangle;html=1;whiteSpace=wrap;connectable=0;overflow=hidden;fillColor=none;top=0;left=0;bottom=0;right=0;pointerEvents=1;" vertex="1" parent="3k-dXzj_LxbUhEb5cwEd-295">
                    <mxGeometry x="120" width="60" height="40" as="geometry">
                        <mxRectangle width="60" height="40" as="alternateBounds"/>
                    </mxGeometry>
                </mxCell>
                <mxCell id="3k-dXzj_LxbUhEb5cwEd-299" value="" style="shape=partialRectangle;html=1;whiteSpace=wrap;connectable=0;overflow=hidden;fillColor=none;top=0;left=0;bottom=0;right=0;pointerEvents=1;" vertex="1" parent="3k-dXzj_LxbUhEb5cwEd-295">
                    <mxGeometry x="180" width="60" height="40" as="geometry">
                        <mxRectangle width="60" height="40" as="alternateBounds"/>
                    </mxGeometry>
                </mxCell>
                <mxCell id="3k-dXzj_LxbUhEb5cwEd-300" value="1" style="text;html=1;strokeColor=#d6b656;fillColor=#fff2cc;align=center;verticalAlign=middle;whiteSpace=wrap;rounded=0;" vertex="1" parent="3k-dXzj_LxbUhEb5cwEd-1">
                    <mxGeometry x="10" y="706" width="40" height="30" as="geometry"/>
                </mxCell>
                <mxCell id="3k-dXzj_LxbUhEb5cwEd-301" value="2" style="text;html=1;strokeColor=#6c8ebf;fillColor=#dae8fc;align=center;verticalAlign=middle;whiteSpace=wrap;rounded=0;" vertex="1" parent="3k-dXzj_LxbUhEb5cwEd-1">
                    <mxGeometry x="190" y="706" width="40" height="30" as="geometry"/>
                </mxCell>
                <mxCell id="3k-dXzj_LxbUhEb5cwEd-302" value="" style="shape=table;startSize=0;container=1;collapsible=0;childLayout=tableLayout;" vertex="1" parent="3k-dXzj_LxbUhEb5cwEd-1">
                    <mxGeometry x="310" y="596" width="240" height="40" as="geometry"/>
                </mxCell>
                <mxCell id="3k-dXzj_LxbUhEb5cwEd-303" value="" style="shape=partialRectangle;collapsible=0;dropTarget=0;pointerEvents=0;fillColor=none;top=0;left=0;bottom=0;right=0;points=[[0,0.5],[1,0.5]];portConstraint=eastwest;" vertex="1" parent="3k-dXzj_LxbUhEb5cwEd-302">
                    <mxGeometry width="240" height="40" as="geometry"/>
                </mxCell>
                <mxCell id="3k-dXzj_LxbUhEb5cwEd-304" value="" style="shape=partialRectangle;html=1;whiteSpace=wrap;connectable=0;overflow=hidden;fillColor=none;top=0;left=0;bottom=0;right=0;pointerEvents=1;" vertex="1" parent="3k-dXzj_LxbUhEb5cwEd-303">
                    <mxGeometry width="60" height="40" as="geometry">
                        <mxRectangle width="60" height="40" as="alternateBounds"/>
                    </mxGeometry>
                </mxCell>
                <mxCell id="3k-dXzj_LxbUhEb5cwEd-305" value="" style="shape=partialRectangle;html=1;whiteSpace=wrap;connectable=0;overflow=hidden;fillColor=none;top=0;left=0;bottom=0;right=0;pointerEvents=1;" vertex="1" parent="3k-dXzj_LxbUhEb5cwEd-303">
                    <mxGeometry x="60" width="60" height="40" as="geometry">
                        <mxRectangle width="60" height="40" as="alternateBounds"/>
                    </mxGeometry>
                </mxCell>
                <mxCell id="3k-dXzj_LxbUhEb5cwEd-306" value="" style="shape=partialRectangle;html=1;whiteSpace=wrap;connectable=0;overflow=hidden;fillColor=none;top=0;left=0;bottom=0;right=0;pointerEvents=1;" vertex="1" parent="3k-dXzj_LxbUhEb5cwEd-303">
                    <mxGeometry x="120" width="60" height="40" as="geometry">
                        <mxRectangle width="60" height="40" as="alternateBounds"/>
                    </mxGeometry>
                </mxCell>
                <mxCell id="3k-dXzj_LxbUhEb5cwEd-307" value="" style="shape=partialRectangle;html=1;whiteSpace=wrap;connectable=0;overflow=hidden;fillColor=none;top=0;left=0;bottom=0;right=0;pointerEvents=1;" vertex="1" parent="3k-dXzj_LxbUhEb5cwEd-303">
                    <mxGeometry x="180" width="60" height="40" as="geometry">
                        <mxRectangle width="60" height="40" as="alternateBounds"/>
                    </mxGeometry>
                </mxCell>
                <mxCell id="3k-dXzj_LxbUhEb5cwEd-308" value="1" style="text;html=1;strokeColor=#d6b656;fillColor=#fff2cc;align=center;verticalAlign=middle;whiteSpace=wrap;rounded=0;" vertex="1" parent="3k-dXzj_LxbUhEb5cwEd-1">
                    <mxGeometry x="380" y="601" width="40" height="30" as="geometry"/>
                </mxCell>
                <mxCell id="3k-dXzj_LxbUhEb5cwEd-309" value="" style="shape=table;startSize=0;container=1;collapsible=0;childLayout=tableLayout;" vertex="1" parent="3k-dXzj_LxbUhEb5cwEd-1">
                    <mxGeometry x="330" y="646" width="240" height="40" as="geometry"/>
                </mxCell>
                <mxCell id="3k-dXzj_LxbUhEb5cwEd-310" value="" style="shape=partialRectangle;collapsible=0;dropTarget=0;pointerEvents=0;fillColor=none;top=0;left=0;bottom=0;right=0;points=[[0,0.5],[1,0.5]];portConstraint=eastwest;" vertex="1" parent="3k-dXzj_LxbUhEb5cwEd-309">
                    <mxGeometry width="240" height="40" as="geometry"/>
                </mxCell>
                <mxCell id="3k-dXzj_LxbUhEb5cwEd-311" value="" style="shape=partialRectangle;html=1;whiteSpace=wrap;connectable=0;overflow=hidden;fillColor=none;top=0;left=0;bottom=0;right=0;pointerEvents=1;" vertex="1" parent="3k-dXzj_LxbUhEb5cwEd-310">
                    <mxGeometry width="60" height="40" as="geometry">
                        <mxRectangle width="60" height="40" as="alternateBounds"/>
                    </mxGeometry>
                </mxCell>
                <mxCell id="3k-dXzj_LxbUhEb5cwEd-312" value="" style="shape=partialRectangle;html=1;whiteSpace=wrap;connectable=0;overflow=hidden;fillColor=none;top=0;left=0;bottom=0;right=0;pointerEvents=1;" vertex="1" parent="3k-dXzj_LxbUhEb5cwEd-310">
                    <mxGeometry x="60" width="60" height="40" as="geometry">
                        <mxRectangle width="60" height="40" as="alternateBounds"/>
                    </mxGeometry>
                </mxCell>
                <mxCell id="3k-dXzj_LxbUhEb5cwEd-313" value="" style="shape=partialRectangle;html=1;whiteSpace=wrap;connectable=0;overflow=hidden;fillColor=none;top=0;left=0;bottom=0;right=0;pointerEvents=1;" vertex="1" parent="3k-dXzj_LxbUhEb5cwEd-310">
                    <mxGeometry x="120" width="60" height="40" as="geometry">
                        <mxRectangle width="60" height="40" as="alternateBounds"/>
                    </mxGeometry>
                </mxCell>
                <mxCell id="3k-dXzj_LxbUhEb5cwEd-314" value="" style="shape=partialRectangle;html=1;whiteSpace=wrap;connectable=0;overflow=hidden;fillColor=none;top=0;left=0;bottom=0;right=0;pointerEvents=1;" vertex="1" parent="3k-dXzj_LxbUhEb5cwEd-310">
                    <mxGeometry x="180" width="60" height="40" as="geometry">
                        <mxRectangle width="60" height="40" as="alternateBounds"/>
                    </mxGeometry>
                </mxCell>
                <mxCell id="3k-dXzj_LxbUhEb5cwEd-315" value="1" style="text;html=1;strokeColor=#d6b656;fillColor=#fff2cc;align=center;verticalAlign=middle;whiteSpace=wrap;rounded=0;" vertex="1" parent="3k-dXzj_LxbUhEb5cwEd-1">
                    <mxGeometry x="400" y="651" width="40" height="30" as="geometry"/>
                </mxCell>
                <mxCell id="3k-dXzj_LxbUhEb5cwEd-329" value="1" style="text;html=1;strokeColor=#d6b656;fillColor=#fff2cc;align=center;verticalAlign=middle;whiteSpace=wrap;rounded=0;" vertex="1" parent="3k-dXzj_LxbUhEb5cwEd-1">
                    <mxGeometry x="440" y="705" width="40" height="30" as="geometry"/>
                </mxCell>
                <mxCell id="3k-dXzj_LxbUhEb5cwEd-323" value="" style="shape=table;startSize=0;container=1;collapsible=0;childLayout=tableLayout;" vertex="1" parent="3k-dXzj_LxbUhEb5cwEd-1">
                    <mxGeometry x="370" y="700" width="240" height="40" as="geometry"/>
                </mxCell>
                <mxCell id="3k-dXzj_LxbUhEb5cwEd-324" value="" style="shape=partialRectangle;collapsible=0;dropTarget=0;pointerEvents=0;fillColor=none;top=0;left=0;bottom=0;right=0;points=[[0,0.5],[1,0.5]];portConstraint=eastwest;" vertex="1" parent="3k-dXzj_LxbUhEb5cwEd-323">
                    <mxGeometry width="240" height="40" as="geometry"/>
                </mxCell>
                <mxCell id="3k-dXzj_LxbUhEb5cwEd-325" value="" style="shape=partialRectangle;html=1;whiteSpace=wrap;connectable=0;overflow=hidden;fillColor=none;top=0;left=0;bottom=0;right=0;pointerEvents=1;" vertex="1" parent="3k-dXzj_LxbUhEb5cwEd-324">
                    <mxGeometry width="60" height="40" as="geometry">
                        <mxRectangle width="60" height="40" as="alternateBounds"/>
                    </mxGeometry>
                </mxCell>
                <mxCell id="3k-dXzj_LxbUhEb5cwEd-326" value="" style="shape=partialRectangle;html=1;whiteSpace=wrap;connectable=0;overflow=hidden;fillColor=none;top=0;left=0;bottom=0;right=0;pointerEvents=1;" vertex="1" parent="3k-dXzj_LxbUhEb5cwEd-324">
                    <mxGeometry x="60" width="60" height="40" as="geometry">
                        <mxRectangle width="60" height="40" as="alternateBounds"/>
                    </mxGeometry>
                </mxCell>
                <mxCell id="3k-dXzj_LxbUhEb5cwEd-327" value="" style="shape=partialRectangle;html=1;whiteSpace=wrap;connectable=0;overflow=hidden;fillColor=none;top=0;left=0;bottom=0;right=0;pointerEvents=1;" vertex="1" parent="3k-dXzj_LxbUhEb5cwEd-324">
                    <mxGeometry x="120" width="60" height="40" as="geometry">
                        <mxRectangle width="60" height="40" as="alternateBounds"/>
                    </mxGeometry>
                </mxCell>
                <mxCell id="3k-dXzj_LxbUhEb5cwEd-328" value="" style="shape=partialRectangle;html=1;whiteSpace=wrap;connectable=0;overflow=hidden;fillColor=none;top=0;left=0;bottom=0;right=0;pointerEvents=1;" vertex="1" parent="3k-dXzj_LxbUhEb5cwEd-324">
                    <mxGeometry x="180" width="60" height="40" as="geometry">
                        <mxRectangle width="60" height="40" as="alternateBounds"/>
                    </mxGeometry>
                </mxCell>
                <mxCell id="3k-dXzj_LxbUhEb5cwEd-284" value="2" style="text;html=1;strokeColor=#6c8ebf;fillColor=#dae8fc;align=center;verticalAlign=middle;whiteSpace=wrap;rounded=0;" vertex="1" parent="3k-dXzj_LxbUhEb5cwEd-1">
                    <mxGeometry x="380" y="704" width="40" height="30" as="geometry"/>
                </mxCell>
                <mxCell id="3k-dXzj_LxbUhEb5cwEd-330" value="2" style="text;html=1;strokeColor=#6c8ebf;fillColor=#dae8fc;align=center;verticalAlign=middle;whiteSpace=wrap;rounded=0;" vertex="1" parent="3k-dXzj_LxbUhEb5cwEd-1">
                    <mxGeometry x="460" y="650" width="40" height="30" as="geometry"/>
                </mxCell>
                <mxCell id="3k-dXzj_LxbUhEb5cwEd-331" value="2" style="text;html=1;strokeColor=#6c8ebf;fillColor=#dae8fc;align=center;verticalAlign=middle;whiteSpace=wrap;rounded=0;" vertex="1" parent="3k-dXzj_LxbUhEb5cwEd-1">
                    <mxGeometry x="500" y="601" width="40" height="30" as="geometry"/>
                </mxCell>
                <mxCell id="3k-dXzj_LxbUhEb5cwEd-332" value="" style="shape=table;startSize=0;container=1;collapsible=0;childLayout=tableLayout;" vertex="1" parent="3k-dXzj_LxbUhEb5cwEd-1">
                    <mxGeometry x="620" y="591" width="240" height="40" as="geometry"/>
                </mxCell>
                <mxCell id="3k-dXzj_LxbUhEb5cwEd-333" value="" style="shape=partialRectangle;collapsible=0;dropTarget=0;pointerEvents=0;fillColor=none;top=0;left=0;bottom=0;right=0;points=[[0,0.5],[1,0.5]];portConstraint=eastwest;" vertex="1" parent="3k-dXzj_LxbUhEb5cwEd-332">
                    <mxGeometry width="240" height="40" as="geometry"/>
                </mxCell>
                <mxCell id="3k-dXzj_LxbUhEb5cwEd-334" value="" style="shape=partialRectangle;html=1;whiteSpace=wrap;connectable=0;overflow=hidden;fillColor=none;top=0;left=0;bottom=0;right=0;pointerEvents=1;" vertex="1" parent="3k-dXzj_LxbUhEb5cwEd-333">
                    <mxGeometry width="60" height="40" as="geometry">
                        <mxRectangle width="60" height="40" as="alternateBounds"/>
                    </mxGeometry>
                </mxCell>
                <mxCell id="3k-dXzj_LxbUhEb5cwEd-335" value="" style="shape=partialRectangle;html=1;whiteSpace=wrap;connectable=0;overflow=hidden;fillColor=none;top=0;left=0;bottom=0;right=0;pointerEvents=1;" vertex="1" parent="3k-dXzj_LxbUhEb5cwEd-333">
                    <mxGeometry x="60" width="60" height="40" as="geometry">
                        <mxRectangle width="60" height="40" as="alternateBounds"/>
                    </mxGeometry>
                </mxCell>
                <mxCell id="3k-dXzj_LxbUhEb5cwEd-336" value="" style="shape=partialRectangle;html=1;whiteSpace=wrap;connectable=0;overflow=hidden;fillColor=none;top=0;left=0;bottom=0;right=0;pointerEvents=1;" vertex="1" parent="3k-dXzj_LxbUhEb5cwEd-333">
                    <mxGeometry x="120" width="60" height="40" as="geometry">
                        <mxRectangle width="60" height="40" as="alternateBounds"/>
                    </mxGeometry>
                </mxCell>
                <mxCell id="3k-dXzj_LxbUhEb5cwEd-337" value="" style="shape=partialRectangle;html=1;whiteSpace=wrap;connectable=0;overflow=hidden;fillColor=none;top=0;left=0;bottom=0;right=0;pointerEvents=1;" vertex="1" parent="3k-dXzj_LxbUhEb5cwEd-333">
                    <mxGeometry x="180" width="60" height="40" as="geometry">
                        <mxRectangle width="60" height="40" as="alternateBounds"/>
                    </mxGeometry>
                </mxCell>
                <mxCell id="3k-dXzj_LxbUhEb5cwEd-338" value="1" style="text;html=1;strokeColor=#d6b656;fillColor=#fff2cc;align=center;verticalAlign=middle;whiteSpace=wrap;rounded=0;" vertex="1" parent="3k-dXzj_LxbUhEb5cwEd-1">
                    <mxGeometry x="750" y="596" width="40" height="30" as="geometry"/>
                </mxCell>
                <mxCell id="3k-dXzj_LxbUhEb5cwEd-339" value="" style="shape=table;startSize=0;container=1;collapsible=0;childLayout=tableLayout;" vertex="1" parent="3k-dXzj_LxbUhEb5cwEd-1">
                    <mxGeometry x="690" y="641" width="240" height="40" as="geometry"/>
                </mxCell>
                <mxCell id="3k-dXzj_LxbUhEb5cwEd-340" value="" style="shape=partialRectangle;collapsible=0;dropTarget=0;pointerEvents=0;fillColor=none;top=0;left=0;bottom=0;right=0;points=[[0,0.5],[1,0.5]];portConstraint=eastwest;" vertex="1" parent="3k-dXzj_LxbUhEb5cwEd-339">
                    <mxGeometry width="240" height="40" as="geometry"/>
                </mxCell>
                <mxCell id="3k-dXzj_LxbUhEb5cwEd-341" value="" style="shape=partialRectangle;html=1;whiteSpace=wrap;connectable=0;overflow=hidden;fillColor=none;top=0;left=0;bottom=0;right=0;pointerEvents=1;" vertex="1" parent="3k-dXzj_LxbUhEb5cwEd-340">
                    <mxGeometry width="60" height="40" as="geometry">
                        <mxRectangle width="60" height="40" as="alternateBounds"/>
                    </mxGeometry>
                </mxCell>
                <mxCell id="3k-dXzj_LxbUhEb5cwEd-342" value="" style="shape=partialRectangle;html=1;whiteSpace=wrap;connectable=0;overflow=hidden;fillColor=none;top=0;left=0;bottom=0;right=0;pointerEvents=1;" vertex="1" parent="3k-dXzj_LxbUhEb5cwEd-340">
                    <mxGeometry x="60" width="60" height="40" as="geometry">
                        <mxRectangle width="60" height="40" as="alternateBounds"/>
                    </mxGeometry>
                </mxCell>
                <mxCell id="3k-dXzj_LxbUhEb5cwEd-343" value="" style="shape=partialRectangle;html=1;whiteSpace=wrap;connectable=0;overflow=hidden;fillColor=none;top=0;left=0;bottom=0;right=0;pointerEvents=1;" vertex="1" parent="3k-dXzj_LxbUhEb5cwEd-340">
                    <mxGeometry x="120" width="60" height="40" as="geometry">
                        <mxRectangle width="60" height="40" as="alternateBounds"/>
                    </mxGeometry>
                </mxCell>
                <mxCell id="3k-dXzj_LxbUhEb5cwEd-344" value="" style="shape=partialRectangle;html=1;whiteSpace=wrap;connectable=0;overflow=hidden;fillColor=none;top=0;left=0;bottom=0;right=0;pointerEvents=1;" vertex="1" parent="3k-dXzj_LxbUhEb5cwEd-340">
                    <mxGeometry x="180" width="60" height="40" as="geometry">
                        <mxRectangle width="60" height="40" as="alternateBounds"/>
                    </mxGeometry>
                </mxCell>
                <mxCell id="3k-dXzj_LxbUhEb5cwEd-345" value="1" style="text;html=1;strokeColor=#d6b656;fillColor=#fff2cc;align=center;verticalAlign=middle;whiteSpace=wrap;rounded=0;" vertex="1" parent="3k-dXzj_LxbUhEb5cwEd-1">
                    <mxGeometry x="820" y="646" width="40" height="30" as="geometry"/>
                </mxCell>
                <mxCell id="3k-dXzj_LxbUhEb5cwEd-346" value="" style="shape=table;startSize=0;container=1;collapsible=0;childLayout=tableLayout;" vertex="1" parent="3k-dXzj_LxbUhEb5cwEd-1">
                    <mxGeometry x="760" y="690" width="240" height="40" as="geometry"/>
                </mxCell>
                <mxCell id="3k-dXzj_LxbUhEb5cwEd-347" value="" style="shape=partialRectangle;collapsible=0;dropTarget=0;pointerEvents=0;fillColor=none;top=0;left=0;bottom=0;right=0;points=[[0,0.5],[1,0.5]];portConstraint=eastwest;" vertex="1" parent="3k-dXzj_LxbUhEb5cwEd-346">
                    <mxGeometry width="240" height="40" as="geometry"/>
                </mxCell>
                <mxCell id="3k-dXzj_LxbUhEb5cwEd-348" value="" style="shape=partialRectangle;html=1;whiteSpace=wrap;connectable=0;overflow=hidden;fillColor=none;top=0;left=0;bottom=0;right=0;pointerEvents=1;" vertex="1" parent="3k-dXzj_LxbUhEb5cwEd-347">
                    <mxGeometry width="60" height="40" as="geometry">
                        <mxRectangle width="60" height="40" as="alternateBounds"/>
                    </mxGeometry>
                </mxCell>
                <mxCell id="3k-dXzj_LxbUhEb5cwEd-349" value="" style="shape=partialRectangle;html=1;whiteSpace=wrap;connectable=0;overflow=hidden;fillColor=none;top=0;left=0;bottom=0;right=0;pointerEvents=1;" vertex="1" parent="3k-dXzj_LxbUhEb5cwEd-347">
                    <mxGeometry x="60" width="60" height="40" as="geometry">
                        <mxRectangle width="60" height="40" as="alternateBounds"/>
                    </mxGeometry>
                </mxCell>
                <mxCell id="3k-dXzj_LxbUhEb5cwEd-350" value="" style="shape=partialRectangle;html=1;whiteSpace=wrap;connectable=0;overflow=hidden;fillColor=none;top=0;left=0;bottom=0;right=0;pointerEvents=1;" vertex="1" parent="3k-dXzj_LxbUhEb5cwEd-347">
                    <mxGeometry x="120" width="60" height="40" as="geometry">
                        <mxRectangle width="60" height="40" as="alternateBounds"/>
                    </mxGeometry>
                </mxCell>
                <mxCell id="3k-dXzj_LxbUhEb5cwEd-351" value="" style="shape=partialRectangle;html=1;whiteSpace=wrap;connectable=0;overflow=hidden;fillColor=none;top=0;left=0;bottom=0;right=0;pointerEvents=1;" vertex="1" parent="3k-dXzj_LxbUhEb5cwEd-347">
                    <mxGeometry x="180" width="60" height="40" as="geometry">
                        <mxRectangle width="60" height="40" as="alternateBounds"/>
                    </mxGeometry>
                </mxCell>
                <mxCell id="3k-dXzj_LxbUhEb5cwEd-352" value="2" style="text;html=1;strokeColor=#6c8ebf;fillColor=#dae8fc;align=center;verticalAlign=middle;whiteSpace=wrap;rounded=0;" vertex="1" parent="3k-dXzj_LxbUhEb5cwEd-1">
                    <mxGeometry x="630" y="600" width="40" height="30" as="geometry"/>
                </mxCell>
                <mxCell id="3k-dXzj_LxbUhEb5cwEd-353" value="2" style="text;html=1;strokeColor=#6c8ebf;fillColor=#dae8fc;align=center;verticalAlign=middle;whiteSpace=wrap;rounded=0;" vertex="1" parent="3k-dXzj_LxbUhEb5cwEd-1">
                    <mxGeometry x="760" y="646" width="40" height="30" as="geometry"/>
                </mxCell>
                <mxCell id="3k-dXzj_LxbUhEb5cwEd-354" value="2" style="text;html=1;strokeColor=#6c8ebf;fillColor=#dae8fc;align=center;verticalAlign=middle;whiteSpace=wrap;rounded=0;" vertex="1" parent="3k-dXzj_LxbUhEb5cwEd-1">
                    <mxGeometry x="950" y="695" width="40" height="30" as="geometry"/>
                </mxCell>
                <mxCell id="3k-dXzj_LxbUhEb5cwEd-355" value="1" style="text;html=1;strokeColor=#d6b656;fillColor=#fff2cc;align=center;verticalAlign=middle;whiteSpace=wrap;rounded=0;" vertex="1" parent="3k-dXzj_LxbUhEb5cwEd-1">
                    <mxGeometry x="890" y="695" width="40" height="30" as="geometry"/>
                </mxCell>
                <mxCell id="3k-dXzj_LxbUhEb5cwEd-356" value="" style="shape=table;startSize=0;container=1;collapsible=0;childLayout=tableLayout;" vertex="1" parent="3k-dXzj_LxbUhEb5cwEd-1">
                    <mxGeometry x="1070" y="590" width="240" height="40" as="geometry"/>
                </mxCell>
                <mxCell id="3k-dXzj_LxbUhEb5cwEd-357" value="" style="shape=partialRectangle;collapsible=0;dropTarget=0;pointerEvents=0;fillColor=none;top=0;left=0;bottom=0;right=0;points=[[0,0.5],[1,0.5]];portConstraint=eastwest;" vertex="1" parent="3k-dXzj_LxbUhEb5cwEd-356">
                    <mxGeometry width="240" height="40" as="geometry"/>
                </mxCell>
                <mxCell id="3k-dXzj_LxbUhEb5cwEd-358" value="" style="shape=partialRectangle;html=1;whiteSpace=wrap;connectable=0;overflow=hidden;fillColor=none;top=0;left=0;bottom=0;right=0;pointerEvents=1;" vertex="1" parent="3k-dXzj_LxbUhEb5cwEd-357">
                    <mxGeometry width="60" height="40" as="geometry">
                        <mxRectangle width="60" height="40" as="alternateBounds"/>
                    </mxGeometry>
                </mxCell>
                <mxCell id="3k-dXzj_LxbUhEb5cwEd-359" value="" style="shape=partialRectangle;html=1;whiteSpace=wrap;connectable=0;overflow=hidden;fillColor=none;top=0;left=0;bottom=0;right=0;pointerEvents=1;" vertex="1" parent="3k-dXzj_LxbUhEb5cwEd-357">
                    <mxGeometry x="60" width="60" height="40" as="geometry">
                        <mxRectangle width="60" height="40" as="alternateBounds"/>
                    </mxGeometry>
                </mxCell>
                <mxCell id="3k-dXzj_LxbUhEb5cwEd-360" value="" style="shape=partialRectangle;html=1;whiteSpace=wrap;connectable=0;overflow=hidden;fillColor=none;top=0;left=0;bottom=0;right=0;pointerEvents=1;" vertex="1" parent="3k-dXzj_LxbUhEb5cwEd-357">
                    <mxGeometry x="120" width="60" height="40" as="geometry">
                        <mxRectangle width="60" height="40" as="alternateBounds"/>
                    </mxGeometry>
                </mxCell>
                <mxCell id="3k-dXzj_LxbUhEb5cwEd-361" value="" style="shape=partialRectangle;html=1;whiteSpace=wrap;connectable=0;overflow=hidden;fillColor=none;top=0;left=0;bottom=0;right=0;pointerEvents=1;" vertex="1" parent="3k-dXzj_LxbUhEb5cwEd-357">
                    <mxGeometry x="180" width="60" height="40" as="geometry">
                        <mxRectangle width="60" height="40" as="alternateBounds"/>
                    </mxGeometry>
                </mxCell>
                <mxCell id="3k-dXzj_LxbUhEb5cwEd-362" value="1" style="text;html=1;strokeColor=#d6b656;fillColor=#fff2cc;align=center;verticalAlign=middle;whiteSpace=wrap;rounded=0;" vertex="1" parent="3k-dXzj_LxbUhEb5cwEd-1">
                    <mxGeometry x="1260" y="595" width="40" height="30" as="geometry"/>
                </mxCell>
                <mxCell id="3k-dXzj_LxbUhEb5cwEd-363" value="" style="shape=table;startSize=0;container=1;collapsible=0;childLayout=tableLayout;" vertex="1" parent="3k-dXzj_LxbUhEb5cwEd-1">
                    <mxGeometry x="1121" y="636" width="240" height="40" as="geometry"/>
                </mxCell>
                <mxCell id="3k-dXzj_LxbUhEb5cwEd-364" value="" style="shape=partialRectangle;collapsible=0;dropTarget=0;pointerEvents=0;fillColor=none;top=0;left=0;bottom=0;right=0;points=[[0,0.5],[1,0.5]];portConstraint=eastwest;" vertex="1" parent="3k-dXzj_LxbUhEb5cwEd-363">
                    <mxGeometry width="240" height="40" as="geometry"/>
                </mxCell>
                <mxCell id="3k-dXzj_LxbUhEb5cwEd-365" value="" style="shape=partialRectangle;html=1;whiteSpace=wrap;connectable=0;overflow=hidden;fillColor=none;top=0;left=0;bottom=0;right=0;pointerEvents=1;" vertex="1" parent="3k-dXzj_LxbUhEb5cwEd-364">
                    <mxGeometry width="60" height="40" as="geometry">
                        <mxRectangle width="60" height="40" as="alternateBounds"/>
                    </mxGeometry>
                </mxCell>
                <mxCell id="3k-dXzj_LxbUhEb5cwEd-366" value="" style="shape=partialRectangle;html=1;whiteSpace=wrap;connectable=0;overflow=hidden;fillColor=none;top=0;left=0;bottom=0;right=0;pointerEvents=1;" vertex="1" parent="3k-dXzj_LxbUhEb5cwEd-364">
                    <mxGeometry x="60" width="60" height="40" as="geometry">
                        <mxRectangle width="60" height="40" as="alternateBounds"/>
                    </mxGeometry>
                </mxCell>
                <mxCell id="3k-dXzj_LxbUhEb5cwEd-367" value="" style="shape=partialRectangle;html=1;whiteSpace=wrap;connectable=0;overflow=hidden;fillColor=none;top=0;left=0;bottom=0;right=0;pointerEvents=1;" vertex="1" parent="3k-dXzj_LxbUhEb5cwEd-364">
                    <mxGeometry x="120" width="60" height="40" as="geometry">
                        <mxRectangle width="60" height="40" as="alternateBounds"/>
                    </mxGeometry>
                </mxCell>
                <mxCell id="3k-dXzj_LxbUhEb5cwEd-368" value="" style="shape=partialRectangle;html=1;whiteSpace=wrap;connectable=0;overflow=hidden;fillColor=none;top=0;left=0;bottom=0;right=0;pointerEvents=1;" vertex="1" parent="3k-dXzj_LxbUhEb5cwEd-364">
                    <mxGeometry x="180" width="60" height="40" as="geometry">
                        <mxRectangle width="60" height="40" as="alternateBounds"/>
                    </mxGeometry>
                </mxCell>
                <mxCell id="3k-dXzj_LxbUhEb5cwEd-369" value="1" style="text;html=1;strokeColor=#d6b656;fillColor=#fff2cc;align=center;verticalAlign=middle;whiteSpace=wrap;rounded=0;" vertex="1" parent="3k-dXzj_LxbUhEb5cwEd-1">
                    <mxGeometry x="1311" y="641" width="40" height="30" as="geometry"/>
                </mxCell>
                <mxCell id="3k-dXzj_LxbUhEb5cwEd-370" value="" style="shape=table;startSize=0;container=1;collapsible=0;childLayout=tableLayout;" vertex="1" parent="3k-dXzj_LxbUhEb5cwEd-1">
                    <mxGeometry x="1190" y="685" width="240" height="40" as="geometry"/>
                </mxCell>
                <mxCell id="3k-dXzj_LxbUhEb5cwEd-371" value="" style="shape=partialRectangle;collapsible=0;dropTarget=0;pointerEvents=0;fillColor=none;top=0;left=0;bottom=0;right=0;points=[[0,0.5],[1,0.5]];portConstraint=eastwest;" vertex="1" parent="3k-dXzj_LxbUhEb5cwEd-370">
                    <mxGeometry width="240" height="40" as="geometry"/>
                </mxCell>
                <mxCell id="3k-dXzj_LxbUhEb5cwEd-372" value="" style="shape=partialRectangle;html=1;whiteSpace=wrap;connectable=0;overflow=hidden;fillColor=none;top=0;left=0;bottom=0;right=0;pointerEvents=1;" vertex="1" parent="3k-dXzj_LxbUhEb5cwEd-371">
                    <mxGeometry width="60" height="40" as="geometry">
                        <mxRectangle width="60" height="40" as="alternateBounds"/>
                    </mxGeometry>
                </mxCell>
                <mxCell id="3k-dXzj_LxbUhEb5cwEd-373" value="" style="shape=partialRectangle;html=1;whiteSpace=wrap;connectable=0;overflow=hidden;fillColor=none;top=0;left=0;bottom=0;right=0;pointerEvents=1;" vertex="1" parent="3k-dXzj_LxbUhEb5cwEd-371">
                    <mxGeometry x="60" width="60" height="40" as="geometry">
                        <mxRectangle width="60" height="40" as="alternateBounds"/>
                    </mxGeometry>
                </mxCell>
                <mxCell id="3k-dXzj_LxbUhEb5cwEd-374" value="" style="shape=partialRectangle;html=1;whiteSpace=wrap;connectable=0;overflow=hidden;fillColor=none;top=0;left=0;bottom=0;right=0;pointerEvents=1;" vertex="1" parent="3k-dXzj_LxbUhEb5cwEd-371">
                    <mxGeometry x="120" width="60" height="40" as="geometry">
                        <mxRectangle width="60" height="40" as="alternateBounds"/>
                    </mxGeometry>
                </mxCell>
                <mxCell id="3k-dXzj_LxbUhEb5cwEd-375" value="" style="shape=partialRectangle;html=1;whiteSpace=wrap;connectable=0;overflow=hidden;fillColor=none;top=0;left=0;bottom=0;right=0;pointerEvents=1;" vertex="1" parent="3k-dXzj_LxbUhEb5cwEd-371">
                    <mxGeometry x="180" width="60" height="40" as="geometry">
                        <mxRectangle width="60" height="40" as="alternateBounds"/>
                    </mxGeometry>
                </mxCell>
                <mxCell id="3k-dXzj_LxbUhEb5cwEd-376" value="1" style="text;html=1;strokeColor=#d6b656;fillColor=#fff2cc;align=center;verticalAlign=middle;whiteSpace=wrap;rounded=0;" vertex="1" parent="3k-dXzj_LxbUhEb5cwEd-1">
                    <mxGeometry x="1380" y="690" width="40" height="30" as="geometry"/>
                </mxCell>
                <mxCell id="3k-dXzj_LxbUhEb5cwEd-377" value="2" style="text;html=1;strokeColor=#6c8ebf;fillColor=#dae8fc;align=center;verticalAlign=middle;whiteSpace=wrap;rounded=0;" vertex="1" parent="3k-dXzj_LxbUhEb5cwEd-1">
                    <mxGeometry x="1081" y="596" width="40" height="30" as="geometry"/>
                </mxCell>
                <mxCell id="3k-dXzj_LxbUhEb5cwEd-378" value="2" style="text;html=1;strokeColor=#6c8ebf;fillColor=#dae8fc;align=center;verticalAlign=middle;whiteSpace=wrap;rounded=0;" vertex="1" parent="3k-dXzj_LxbUhEb5cwEd-1">
                    <mxGeometry x="1321" y="690" width="40" height="30" as="geometry"/>
                </mxCell>
                <mxCell id="3k-dXzj_LxbUhEb5cwEd-379" value="2" style="text;html=1;strokeColor=#6c8ebf;fillColor=#dae8fc;align=center;verticalAlign=middle;whiteSpace=wrap;rounded=0;" vertex="1" parent="3k-dXzj_LxbUhEb5cwEd-1">
                    <mxGeometry x="1190" y="641" width="40" height="30" as="geometry"/>
                </mxCell>
                <mxCell id="3k-dXzj_LxbUhEb5cwEd-383" style="edgeStyle=none;html=1;entryX=0.574;entryY=0.042;entryDx=0;entryDy=0;entryPerimeter=0;" edge="1" parent="3k-dXzj_LxbUhEb5cwEd-1" source="3k-dXzj_LxbUhEb5cwEd-220" target="3k-dXzj_LxbUhEb5cwEd-244">
                    <mxGeometry relative="1" as="geometry"/>
                </mxCell>
                <mxCell id="3k-dXzj_LxbUhEb5cwEd-384" style="edgeStyle=none;html=1;entryX=0.817;entryY=0.045;entryDx=0;entryDy=0;entryPerimeter=0;" edge="1" parent="3k-dXzj_LxbUhEb5cwEd-1" source="3k-dXzj_LxbUhEb5cwEd-226" target="3k-dXzj_LxbUhEb5cwEd-254">
                    <mxGeometry relative="1" as="geometry"/>
                </mxCell>
                <mxCell id="3k-dXzj_LxbUhEb5cwEd-386" style="edgeStyle=none;html=1;entryX=1;entryY=0;entryDx=0;entryDy=0;exitX=0.866;exitY=0.977;exitDx=0;exitDy=0;exitPerimeter=0;" edge="1" parent="3k-dXzj_LxbUhEb5cwEd-1" source="3k-dXzj_LxbUhEb5cwEd-226" target="3k-dXzj_LxbUhEb5cwEd-301">
                    <mxGeometry relative="1" as="geometry"/>
                </mxCell>
                <mxCell id="3k-dXzj_LxbUhEb5cwEd-388" style="edgeStyle=none;html=1;exitX=0.832;exitY=0.977;exitDx=0;exitDy=0;exitPerimeter=0;entryX=0.979;entryY=-0.014;entryDx=0;entryDy=0;entryPerimeter=0;" edge="1" parent="3k-dXzj_LxbUhEb5cwEd-1" source="3k-dXzj_LxbUhEb5cwEd-232" target="3k-dXzj_LxbUhEb5cwEd-310">
                    <mxGeometry relative="1" as="geometry"/>
                </mxCell>
                <mxCell id="3k-dXzj_LxbUhEb5cwEd-389" style="edgeStyle=none;html=1;entryX=0.926;entryY=0.045;entryDx=0;entryDy=0;exitX=0.915;exitY=0.977;exitDx=0;exitDy=0;exitPerimeter=0;entryPerimeter=0;" edge="1" parent="3k-dXzj_LxbUhEb5cwEd-1" source="3k-dXzj_LxbUhEb5cwEd-232" target="3k-dXzj_LxbUhEb5cwEd-324">
                    <mxGeometry relative="1" as="geometry"/>
                </mxCell>
                <mxCell id="3k-dXzj_LxbUhEb5cwEd-392" style="edgeStyle=none;html=1;entryX=0.958;entryY=0;entryDx=0;entryDy=0;entryPerimeter=0;exitX=0.976;exitY=1.023;exitDx=0;exitDy=0;exitPerimeter=0;" edge="1" parent="3k-dXzj_LxbUhEb5cwEd-1" source="3k-dXzj_LxbUhEb5cwEd-238" target="3k-dXzj_LxbUhEb5cwEd-347">
                    <mxGeometry relative="1" as="geometry"/>
                </mxCell>
                <mxCell id="3k-dXzj_LxbUhEb5cwEd-393" style="edgeStyle=none;html=1;entryX=0.442;entryY=-0.023;entryDx=0;entryDy=0;entryPerimeter=0;exitX=0.695;exitY=1.023;exitDx=0;exitDy=0;exitPerimeter=0;" edge="1" parent="3k-dXzj_LxbUhEb5cwEd-1" source="3k-dXzj_LxbUhEb5cwEd-244" target="3k-dXzj_LxbUhEb5cwEd-357">
                    <mxGeometry relative="1" as="geometry"/>
                </mxCell>
                <mxCell id="3k-dXzj_LxbUhEb5cwEd-394" style="edgeStyle=none;html=1;entryX=0.934;entryY=0.009;entryDx=0;entryDy=0;entryPerimeter=0;exitX=0.983;exitY=0.977;exitDx=0;exitDy=0;exitPerimeter=0;" edge="1" parent="3k-dXzj_LxbUhEb5cwEd-1" source="3k-dXzj_LxbUhEb5cwEd-244" target="3k-dXzj_LxbUhEb5cwEd-364">
                    <mxGeometry relative="1" as="geometry"/>
                </mxCell>
                <mxCell id="3k-dXzj_LxbUhEb5cwEd-395" style="edgeStyle=none;html=1;entryX=0.958;entryY=0.125;entryDx=0;entryDy=0;entryPerimeter=0;exitX=1;exitY=0.25;exitDx=0;exitDy=0;" edge="1" parent="3k-dXzj_LxbUhEb5cwEd-1" source="3k-dXzj_LxbUhEb5cwEd-249" target="3k-dXzj_LxbUhEb5cwEd-371">
                    <mxGeometry relative="1" as="geometry"/>
                </mxCell>
                <mxCell id="3k-dXzj_LxbUhEb5cwEd-396" value="&lt;b&gt;Level&lt;/b&gt; for item 1" style="text;html=1;strokeColor=#b85450;fillColor=#f8cecc;align=center;verticalAlign=middle;whiteSpace=wrap;rounded=0;fontSize=16;" vertex="1" parent="3k-dXzj_LxbUhEb5cwEd-1">
                    <mxGeometry x="-280" y="450" width="260" height="30" as="geometry"/>
                </mxCell>
                <mxCell id="3k-dXzj_LxbUhEb5cwEd-397" value="&lt;b&gt;Level&lt;/b&gt; for item 2" style="text;html=1;strokeColor=#b85450;fillColor=#f8cecc;align=center;verticalAlign=middle;whiteSpace=wrap;rounded=0;fontSize=16;" vertex="1" parent="3k-dXzj_LxbUhEb5cwEd-1">
                    <mxGeometry x="-320" y="680" width="230" height="30" as="geometry"/>
                </mxCell>
                <mxCell id="3k-dXzj_LxbUhEb5cwEd-398" value="Hos many possibilities for Item 1" style="text;html=1;strokeColor=#b85450;fillColor=#f8cecc;align=center;verticalAlign=middle;whiteSpace=wrap;rounded=0;fontSize=16;" vertex="1" parent="3k-dXzj_LxbUhEb5cwEd-1">
                    <mxGeometry x="-280" y="410" width="260" height="30" as="geometry"/>
                </mxCell>
                <mxCell id="3k-dXzj_LxbUhEb5cwEd-399" value="Hos many possibilities for Item 2" style="text;html=1;strokeColor=#b85450;fillColor=#f8cecc;align=center;verticalAlign=middle;whiteSpace=wrap;rounded=0;fontSize=16;" vertex="1" parent="3k-dXzj_LxbUhEb5cwEd-1">
                    <mxGeometry x="-330" y="630" width="240" height="30" as="geometry"/>
                </mxCell>
                <mxCell id="3k-dXzj_LxbUhEb5cwEd-400" value="&lt;b&gt;Items are Levels in the Recursion Tree&lt;/b&gt;" style="text;html=1;strokeColor=#b85450;fillColor=#f8cecc;align=center;verticalAlign=middle;whiteSpace=wrap;rounded=0;fontSize=19;" vertex="1" parent="3k-dXzj_LxbUhEb5cwEd-1">
                    <mxGeometry x="180" y="810" width="570" height="30" as="geometry"/>
                </mxCell>
                <mxCell id="3k-dXzj_LxbUhEb5cwEd-401" style="edgeStyle=none;html=1;exitX=0.75;exitY=0;exitDx=0;exitDy=0;fontSize=16;" edge="1" parent="3k-dXzj_LxbUhEb5cwEd-1" source="3k-dXzj_LxbUhEb5cwEd-399" target="3k-dXzj_LxbUhEb5cwEd-399">
                    <mxGeometry relative="1" as="geometry"/>
                </mxCell>
                <mxCell id="3k-dXzj_LxbUhEb5cwEd-402" value="&lt;b&gt;Placeholders are options in the Recusrsion Tree&lt;/b&gt;" style="text;html=1;strokeColor=#b85450;fillColor=#f8cecc;align=center;verticalAlign=middle;whiteSpace=wrap;rounded=0;fontSize=19;" vertex="1" parent="3k-dXzj_LxbUhEb5cwEd-1">
                    <mxGeometry x="180" y="850" width="580" height="30" as="geometry"/>
                </mxCell>
            </root>
        </mxGraphModel>
    </diagram>
    <diagram id="8c2fnDNr9jzlkmZ4hJ_A" name="Page-4">
        <mxGraphModel dx="2702" dy="795" grid="1" gridSize="10" guides="1" tooltips="1" connect="1" arrows="1" fold="1" page="1" pageScale="1" pageWidth="827" pageHeight="1169" math="0" shadow="0">
            <root>
                <mxCell id="S4Rdwj9bRPX_2X4X4qKj-0"/>
                <mxCell id="S4Rdwj9bRPX_2X4X4qKj-1" parent="S4Rdwj9bRPX_2X4X4qKj-0"/>
                <mxCell id="S4Rdwj9bRPX_2X4X4qKj-165" value="" style="edgeStyle=none;html=1;fontSize=17;" edge="1" parent="S4Rdwj9bRPX_2X4X4qKj-1" source="S4Rdwj9bRPX_2X4X4qKj-2" target="S4Rdwj9bRPX_2X4X4qKj-3">
                    <mxGeometry relative="1" as="geometry"/>
                </mxCell>
                <mxCell id="S4Rdwj9bRPX_2X4X4qKj-2" value="1" style="text;html=1;strokeColor=#d6b656;fillColor=#fff2cc;align=center;verticalAlign=middle;whiteSpace=wrap;rounded=0;fontSize=17;" vertex="1" parent="S4Rdwj9bRPX_2X4X4qKj-1">
                    <mxGeometry x="530" y="70" width="40" height="30" as="geometry"/>
                </mxCell>
                <mxCell id="S4Rdwj9bRPX_2X4X4qKj-3" value="1" style="text;html=1;strokeColor=#d6b656;fillColor=#fff2cc;align=center;verticalAlign=middle;whiteSpace=wrap;rounded=0;fontSize=17;" vertex="1" parent="S4Rdwj9bRPX_2X4X4qKj-1">
                    <mxGeometry x="580" y="70" width="40" height="30" as="geometry"/>
                </mxCell>
                <mxCell id="S4Rdwj9bRPX_2X4X4qKj-10" value="Items" style="text;html=1;strokeColor=none;fillColor=none;align=center;verticalAlign=middle;whiteSpace=wrap;rounded=0;fontSize=17;" vertex="1" parent="S4Rdwj9bRPX_2X4X4qKj-1">
                    <mxGeometry x="400" y="70" width="60" height="30" as="geometry"/>
                </mxCell>
                <mxCell id="S4Rdwj9bRPX_2X4X4qKj-11" value="Placeholders" style="text;html=1;strokeColor=none;fillColor=none;align=center;verticalAlign=middle;whiteSpace=wrap;rounded=0;fontSize=17;" vertex="1" parent="S4Rdwj9bRPX_2X4X4qKj-1">
                    <mxGeometry x="400" y="135" width="60" height="30" as="geometry"/>
                </mxCell>
                <mxCell id="S4Rdwj9bRPX_2X4X4qKj-192" value="Do not place" style="edgeStyle=none;html=1;entryX=-0.03;entryY=-0.124;entryDx=0;entryDy=0;entryPerimeter=0;fontSize=17;" edge="1" parent="S4Rdwj9bRPX_2X4X4qKj-1" source="S4Rdwj9bRPX_2X4X4qKj-166" target="S4Rdwj9bRPX_2X4X4qKj-184">
                    <mxGeometry relative="1" as="geometry"/>
                </mxCell>
                <mxCell id="S4Rdwj9bRPX_2X4X4qKj-243" style="edgeStyle=none;html=1;fontSize=17;" edge="1" parent="S4Rdwj9bRPX_2X4X4qKj-1" source="S4Rdwj9bRPX_2X4X4qKj-166" target="S4Rdwj9bRPX_2X4X4qKj-241">
                    <mxGeometry relative="1" as="geometry"/>
                </mxCell>
                <mxCell id="S4Rdwj9bRPX_2X4X4qKj-244" value="Place" style="edgeLabel;html=1;align=center;verticalAlign=middle;resizable=0;points=[];fontSize=17;" vertex="1" connectable="0" parent="S4Rdwj9bRPX_2X4X4qKj-243">
                    <mxGeometry x="-0.3008" y="1" relative="1" as="geometry">
                        <mxPoint as="offset"/>
                    </mxGeometry>
                </mxCell>
                <mxCell id="S4Rdwj9bRPX_2X4X4qKj-166" value="" style="shape=table;startSize=0;container=1;collapsible=0;childLayout=tableLayout;fontSize=17;" vertex="1" parent="S4Rdwj9bRPX_2X4X4qKj-1">
                    <mxGeometry x="150" y="320" width="60" height="40" as="geometry"/>
                </mxCell>
                <mxCell id="S4Rdwj9bRPX_2X4X4qKj-167" value="" style="shape=partialRectangle;collapsible=0;dropTarget=0;pointerEvents=0;fillColor=none;top=0;left=0;bottom=0;right=0;points=[[0,0.5],[1,0.5]];portConstraint=eastwest;fontSize=17;" vertex="1" parent="S4Rdwj9bRPX_2X4X4qKj-166">
                    <mxGeometry width="60" height="40" as="geometry"/>
                </mxCell>
                <mxCell id="S4Rdwj9bRPX_2X4X4qKj-168" value="" style="shape=partialRectangle;html=1;whiteSpace=wrap;connectable=0;overflow=hidden;fillColor=none;top=0;left=0;bottom=0;right=0;pointerEvents=1;fontSize=17;" vertex="1" parent="S4Rdwj9bRPX_2X4X4qKj-167">
                    <mxGeometry width="60" height="40" as="geometry">
                        <mxRectangle width="60" height="40" as="alternateBounds"/>
                    </mxGeometry>
                </mxCell>
                <mxCell id="S4Rdwj9bRPX_2X4X4qKj-169" value="" style="shape=table;startSize=0;container=1;collapsible=0;childLayout=tableLayout;fontSize=17;fillColor=#fff2cc;strokeColor=#d6b656;" vertex="1" parent="S4Rdwj9bRPX_2X4X4qKj-1">
                    <mxGeometry x="320" y="320" width="60" height="40" as="geometry"/>
                </mxCell>
                <mxCell id="S4Rdwj9bRPX_2X4X4qKj-170" value="" style="shape=partialRectangle;collapsible=0;dropTarget=0;pointerEvents=0;fillColor=none;top=0;left=0;bottom=0;right=0;points=[[0,0.5],[1,0.5]];portConstraint=eastwest;fontSize=17;" vertex="1" parent="S4Rdwj9bRPX_2X4X4qKj-169">
                    <mxGeometry width="60" height="40" as="geometry"/>
                </mxCell>
                <mxCell id="S4Rdwj9bRPX_2X4X4qKj-171" value="1" style="shape=partialRectangle;html=1;whiteSpace=wrap;connectable=0;overflow=hidden;fillColor=none;top=0;left=0;bottom=0;right=0;pointerEvents=1;fontSize=17;" vertex="1" parent="S4Rdwj9bRPX_2X4X4qKj-170">
                    <mxGeometry width="60" height="40" as="geometry">
                        <mxRectangle width="60" height="40" as="alternateBounds"/>
                    </mxGeometry>
                </mxCell>
                <mxCell id="S4Rdwj9bRPX_2X4X4qKj-173" style="edgeStyle=none;html=1;fontSize=17;entryX=0.418;entryY=-0.077;entryDx=0;entryDy=0;entryPerimeter=0;" edge="1" parent="S4Rdwj9bRPX_2X4X4qKj-1" source="S4Rdwj9bRPX_2X4X4qKj-172" target="S4Rdwj9bRPX_2X4X4qKj-167">
                    <mxGeometry relative="1" as="geometry">
                        <mxPoint x="220" y="310" as="targetPoint"/>
                    </mxGeometry>
                </mxCell>
                <mxCell id="S4Rdwj9bRPX_2X4X4qKj-175" value="Do not &lt;br&gt;place Item" style="edgeLabel;html=1;align=center;verticalAlign=middle;resizable=0;points=[];fontSize=17;" vertex="1" connectable="0" parent="S4Rdwj9bRPX_2X4X4qKj-173">
                    <mxGeometry x="-0.1197" y="-1" relative="1" as="geometry">
                        <mxPoint as="offset"/>
                    </mxGeometry>
                </mxCell>
                <mxCell id="S4Rdwj9bRPX_2X4X4qKj-174" style="edgeStyle=none;html=1;entryX=0.141;entryY=-0.157;entryDx=0;entryDy=0;entryPerimeter=0;fontSize=17;" edge="1" parent="S4Rdwj9bRPX_2X4X4qKj-1" source="S4Rdwj9bRPX_2X4X4qKj-172" target="S4Rdwj9bRPX_2X4X4qKj-170">
                    <mxGeometry relative="1" as="geometry"/>
                </mxCell>
                <mxCell id="S4Rdwj9bRPX_2X4X4qKj-176" value="Place an&lt;br&gt;item" style="edgeLabel;html=1;align=center;verticalAlign=middle;resizable=0;points=[];fontSize=17;" vertex="1" connectable="0" parent="S4Rdwj9bRPX_2X4X4qKj-174">
                    <mxGeometry x="-0.1588" y="1" relative="1" as="geometry">
                        <mxPoint x="16" y="44" as="offset"/>
                    </mxGeometry>
                </mxCell>
                <mxCell id="S4Rdwj9bRPX_2X4X4qKj-172" value="" style="ellipse;whiteSpace=wrap;html=1;aspect=fixed;labelBackgroundColor=#CCCCFF;fontSize=17;strokeColor=default;gradientColor=none;" vertex="1" parent="S4Rdwj9bRPX_2X4X4qKj-1">
                    <mxGeometry x="260" y="170" width="10" height="10" as="geometry"/>
                </mxCell>
                <mxCell id="S4Rdwj9bRPX_2X4X4qKj-177" value="" style="shape=table;startSize=0;container=1;collapsible=0;childLayout=tableLayout;fontSize=17;" vertex="1" parent="S4Rdwj9bRPX_2X4X4qKj-1">
                    <mxGeometry x="-100" y="440" width="60" height="40" as="geometry"/>
                </mxCell>
                <mxCell id="S4Rdwj9bRPX_2X4X4qKj-178" value="" style="shape=partialRectangle;collapsible=0;dropTarget=0;pointerEvents=0;fillColor=none;top=0;left=0;bottom=0;right=0;points=[[0,0.5],[1,0.5]];portConstraint=eastwest;fontSize=17;" vertex="1" parent="S4Rdwj9bRPX_2X4X4qKj-177">
                    <mxGeometry width="60" height="40" as="geometry"/>
                </mxCell>
                <mxCell id="S4Rdwj9bRPX_2X4X4qKj-179" value="" style="shape=partialRectangle;html=1;whiteSpace=wrap;connectable=0;overflow=hidden;fillColor=none;top=0;left=0;bottom=0;right=0;pointerEvents=1;fontSize=17;" vertex="1" parent="S4Rdwj9bRPX_2X4X4qKj-178">
                    <mxGeometry width="60" height="40" as="geometry">
                        <mxRectangle width="60" height="40" as="alternateBounds"/>
                    </mxGeometry>
                </mxCell>
                <mxCell id="S4Rdwj9bRPX_2X4X4qKj-183" value="" style="shape=table;startSize=0;container=1;collapsible=0;childLayout=tableLayout;fontSize=17;" vertex="1" parent="S4Rdwj9bRPX_2X4X4qKj-1">
                    <mxGeometry x="-40" y="440" width="60" height="40" as="geometry"/>
                </mxCell>
                <mxCell id="S4Rdwj9bRPX_2X4X4qKj-184" value="" style="shape=partialRectangle;collapsible=0;dropTarget=0;pointerEvents=0;fillColor=none;top=0;left=0;bottom=0;right=0;points=[[0,0.5],[1,0.5]];portConstraint=eastwest;fontSize=17;" vertex="1" parent="S4Rdwj9bRPX_2X4X4qKj-183">
                    <mxGeometry width="60" height="40" as="geometry"/>
                </mxCell>
                <mxCell id="S4Rdwj9bRPX_2X4X4qKj-185" value="" style="shape=partialRectangle;html=1;whiteSpace=wrap;connectable=0;overflow=hidden;fillColor=none;top=0;left=0;bottom=0;right=0;pointerEvents=1;fontSize=17;" vertex="1" parent="S4Rdwj9bRPX_2X4X4qKj-184">
                    <mxGeometry width="60" height="40" as="geometry">
                        <mxRectangle width="60" height="40" as="alternateBounds"/>
                    </mxGeometry>
                </mxCell>
                <mxCell id="S4Rdwj9bRPX_2X4X4qKj-186" value="" style="shape=table;startSize=0;container=1;collapsible=0;childLayout=tableLayout;fontSize=17;fillColor=#fff2cc;strokeColor=#d6b656;" vertex="1" parent="S4Rdwj9bRPX_2X4X4qKj-1">
                    <mxGeometry x="930" y="440" width="60" height="40" as="geometry"/>
                </mxCell>
                <mxCell id="S4Rdwj9bRPX_2X4X4qKj-187" value="" style="shape=partialRectangle;collapsible=0;dropTarget=0;pointerEvents=0;fillColor=none;top=0;left=0;bottom=0;right=0;points=[[0,0.5],[1,0.5]];portConstraint=eastwest;fontSize=17;" vertex="1" parent="S4Rdwj9bRPX_2X4X4qKj-186">
                    <mxGeometry width="60" height="40" as="geometry"/>
                </mxCell>
                <mxCell id="S4Rdwj9bRPX_2X4X4qKj-188" value="1" style="shape=partialRectangle;html=1;whiteSpace=wrap;connectable=0;overflow=hidden;fillColor=none;top=0;left=0;bottom=0;right=0;pointerEvents=1;fontSize=17;" vertex="1" parent="S4Rdwj9bRPX_2X4X4qKj-187">
                    <mxGeometry width="60" height="40" as="geometry">
                        <mxRectangle width="60" height="40" as="alternateBounds"/>
                    </mxGeometry>
                </mxCell>
                <mxCell id="S4Rdwj9bRPX_2X4X4qKj-189" value="" style="shape=table;startSize=0;container=1;collapsible=0;childLayout=tableLayout;fontSize=17;fillColor=#fff2cc;strokeColor=#d6b656;" vertex="1" parent="S4Rdwj9bRPX_2X4X4qKj-1">
                    <mxGeometry x="990" y="440" width="60" height="40" as="geometry"/>
                </mxCell>
                <mxCell id="S4Rdwj9bRPX_2X4X4qKj-190" value="" style="shape=partialRectangle;collapsible=0;dropTarget=0;pointerEvents=0;fillColor=none;top=0;left=0;bottom=0;right=0;points=[[0,0.5],[1,0.5]];portConstraint=eastwest;fontSize=17;" vertex="1" parent="S4Rdwj9bRPX_2X4X4qKj-189">
                    <mxGeometry width="60" height="40" as="geometry"/>
                </mxCell>
                <mxCell id="S4Rdwj9bRPX_2X4X4qKj-191" value="1" style="shape=partialRectangle;html=1;whiteSpace=wrap;connectable=0;overflow=hidden;fillColor=none;top=0;left=0;bottom=0;right=0;pointerEvents=1;fontSize=17;" vertex="1" parent="S4Rdwj9bRPX_2X4X4qKj-190">
                    <mxGeometry width="60" height="40" as="geometry">
                        <mxRectangle width="60" height="40" as="alternateBounds"/>
                    </mxGeometry>
                </mxCell>
                <mxCell id="S4Rdwj9bRPX_2X4X4qKj-193" style="edgeStyle=none;html=1;entryX=-0.047;entryY=0.009;entryDx=0;entryDy=0;entryPerimeter=0;fontSize=17;" edge="1" parent="S4Rdwj9bRPX_2X4X4qKj-1" source="S4Rdwj9bRPX_2X4X4qKj-170" target="S4Rdwj9bRPX_2X4X4qKj-190">
                    <mxGeometry relative="1" as="geometry"/>
                </mxCell>
                <mxCell id="S4Rdwj9bRPX_2X4X4qKj-200" value="Place" style="edgeLabel;html=1;align=center;verticalAlign=middle;resizable=0;points=[];fontSize=17;" vertex="1" connectable="0" parent="S4Rdwj9bRPX_2X4X4qKj-193">
                    <mxGeometry x="-0.3988" y="1" relative="1" as="geometry">
                        <mxPoint as="offset"/>
                    </mxGeometry>
                </mxCell>
                <mxCell id="S4Rdwj9bRPX_2X4X4qKj-237" value="" style="shape=table;startSize=0;container=1;collapsible=0;childLayout=tableLayout;fontSize=17;" vertex="1" parent="S4Rdwj9bRPX_2X4X4qKj-1">
                    <mxGeometry x="150" y="430" width="60" height="40" as="geometry"/>
                </mxCell>
                <mxCell id="S4Rdwj9bRPX_2X4X4qKj-238" value="" style="shape=partialRectangle;collapsible=0;dropTarget=0;pointerEvents=0;fillColor=none;top=0;left=0;bottom=0;right=0;points=[[0,0.5],[1,0.5]];portConstraint=eastwest;fontSize=17;" vertex="1" parent="S4Rdwj9bRPX_2X4X4qKj-237">
                    <mxGeometry width="60" height="40" as="geometry"/>
                </mxCell>
                <mxCell id="S4Rdwj9bRPX_2X4X4qKj-239" value="" style="shape=partialRectangle;html=1;whiteSpace=wrap;connectable=0;overflow=hidden;fillColor=none;top=0;left=0;bottom=0;right=0;pointerEvents=1;fontSize=17;" vertex="1" parent="S4Rdwj9bRPX_2X4X4qKj-238">
                    <mxGeometry width="60" height="40" as="geometry">
                        <mxRectangle width="60" height="40" as="alternateBounds"/>
                    </mxGeometry>
                </mxCell>
                <mxCell id="S4Rdwj9bRPX_2X4X4qKj-240" value="" style="shape=table;startSize=0;container=1;collapsible=0;childLayout=tableLayout;fontSize=17;fillColor=#fff2cc;strokeColor=#d6b656;" vertex="1" parent="S4Rdwj9bRPX_2X4X4qKj-1">
                    <mxGeometry x="210" y="430" width="60" height="40" as="geometry"/>
                </mxCell>
                <mxCell id="S4Rdwj9bRPX_2X4X4qKj-241" value="" style="shape=partialRectangle;collapsible=0;dropTarget=0;pointerEvents=0;fillColor=none;top=0;left=0;bottom=0;right=0;points=[[0,0.5],[1,0.5]];portConstraint=eastwest;fontSize=17;" vertex="1" parent="S4Rdwj9bRPX_2X4X4qKj-240">
                    <mxGeometry width="60" height="40" as="geometry"/>
                </mxCell>
                <mxCell id="S4Rdwj9bRPX_2X4X4qKj-242" value="1" style="shape=partialRectangle;html=1;whiteSpace=wrap;connectable=0;overflow=hidden;fillColor=none;top=0;left=0;bottom=0;right=0;pointerEvents=1;fontSize=17;" vertex="1" parent="S4Rdwj9bRPX_2X4X4qKj-241">
                    <mxGeometry width="60" height="40" as="geometry">
                        <mxRectangle width="60" height="40" as="alternateBounds"/>
                    </mxGeometry>
                </mxCell>
                <mxCell id="S4Rdwj9bRPX_2X4X4qKj-245" value="" style="shape=table;startSize=0;container=1;collapsible=0;childLayout=tableLayout;fontSize=17;fillColor=#fff2cc;strokeColor=#d6b656;" vertex="1" parent="S4Rdwj9bRPX_2X4X4qKj-1">
                    <mxGeometry x="547" y="440" width="60" height="40" as="geometry"/>
                </mxCell>
                <mxCell id="S4Rdwj9bRPX_2X4X4qKj-246" value="" style="shape=partialRectangle;collapsible=0;dropTarget=0;pointerEvents=0;fillColor=none;top=0;left=0;bottom=0;right=0;points=[[0,0.5],[1,0.5]];portConstraint=eastwest;fontSize=17;" vertex="1" parent="S4Rdwj9bRPX_2X4X4qKj-245">
                    <mxGeometry width="60" height="40" as="geometry"/>
                </mxCell>
                <mxCell id="S4Rdwj9bRPX_2X4X4qKj-247" value="1" style="shape=partialRectangle;html=1;whiteSpace=wrap;connectable=0;overflow=hidden;fillColor=none;top=0;left=0;bottom=0;right=0;pointerEvents=1;fontSize=17;" vertex="1" parent="S4Rdwj9bRPX_2X4X4qKj-246">
                    <mxGeometry width="60" height="40" as="geometry">
                        <mxRectangle width="60" height="40" as="alternateBounds"/>
                    </mxGeometry>
                </mxCell>
                <mxCell id="S4Rdwj9bRPX_2X4X4qKj-248" value="" style="shape=table;startSize=0;container=1;collapsible=0;childLayout=tableLayout;fontSize=17;" vertex="1" parent="S4Rdwj9bRPX_2X4X4qKj-1">
                    <mxGeometry x="607" y="440" width="60" height="40" as="geometry"/>
                </mxCell>
                <mxCell id="S4Rdwj9bRPX_2X4X4qKj-249" value="" style="shape=partialRectangle;collapsible=0;dropTarget=0;pointerEvents=0;fillColor=none;top=0;left=0;bottom=0;right=0;points=[[0,0.5],[1,0.5]];portConstraint=eastwest;fontSize=17;" vertex="1" parent="S4Rdwj9bRPX_2X4X4qKj-248">
                    <mxGeometry width="60" height="40" as="geometry"/>
                </mxCell>
                <mxCell id="S4Rdwj9bRPX_2X4X4qKj-250" value="" style="shape=partialRectangle;html=1;whiteSpace=wrap;connectable=0;overflow=hidden;fillColor=none;top=0;left=0;bottom=0;right=0;pointerEvents=1;fontSize=17;" vertex="1" parent="S4Rdwj9bRPX_2X4X4qKj-249">
                    <mxGeometry width="60" height="40" as="geometry">
                        <mxRectangle width="60" height="40" as="alternateBounds"/>
                    </mxGeometry>
                </mxCell>
                <mxCell id="S4Rdwj9bRPX_2X4X4qKj-252" style="edgeStyle=none;html=1;fontSize=17;" edge="1" parent="S4Rdwj9bRPX_2X4X4qKj-1" source="S4Rdwj9bRPX_2X4X4qKj-170" target="S4Rdwj9bRPX_2X4X4qKj-246">
                    <mxGeometry relative="1" as="geometry"/>
                </mxCell>
                <mxCell id="S4Rdwj9bRPX_2X4X4qKj-253" value="Dont" style="edgeLabel;html=1;align=center;verticalAlign=middle;resizable=0;points=[];fontSize=17;" vertex="1" connectable="0" parent="S4Rdwj9bRPX_2X4X4qKj-252">
                    <mxGeometry x="-0.5093" y="-2" relative="1" as="geometry">
                        <mxPoint as="offset"/>
                    </mxGeometry>
                </mxCell>
                <mxCell id="S4Rdwj9bRPX_2X4X4qKj-254" value="" style="shape=table;startSize=0;container=1;collapsible=0;childLayout=tableLayout;fontSize=17;" vertex="1" parent="S4Rdwj9bRPX_2X4X4qKj-1">
                    <mxGeometry x="-220" y="545" width="180" height="40" as="geometry"/>
                </mxCell>
                <mxCell id="S4Rdwj9bRPX_2X4X4qKj-255" value="" style="shape=partialRectangle;collapsible=0;dropTarget=0;pointerEvents=0;fillColor=none;top=0;left=0;bottom=0;right=0;points=[[0,0.5],[1,0.5]];portConstraint=eastwest;fontSize=17;" vertex="1" parent="S4Rdwj9bRPX_2X4X4qKj-254">
                    <mxGeometry width="180" height="40" as="geometry"/>
                </mxCell>
                <mxCell id="S4Rdwj9bRPX_2X4X4qKj-260" style="shape=partialRectangle;html=1;whiteSpace=wrap;connectable=0;overflow=hidden;fillColor=none;top=0;left=0;bottom=0;right=0;pointerEvents=1;fontSize=17;" vertex="1" parent="S4Rdwj9bRPX_2X4X4qKj-255">
                    <mxGeometry width="60" height="40" as="geometry">
                        <mxRectangle width="60" height="40" as="alternateBounds"/>
                    </mxGeometry>
                </mxCell>
                <mxCell id="S4Rdwj9bRPX_2X4X4qKj-256" value="" style="shape=partialRectangle;html=1;whiteSpace=wrap;connectable=0;overflow=hidden;fillColor=none;top=0;left=0;bottom=0;right=0;pointerEvents=1;fontSize=17;" vertex="1" parent="S4Rdwj9bRPX_2X4X4qKj-255">
                    <mxGeometry x="60" width="60" height="40" as="geometry">
                        <mxRectangle width="60" height="40" as="alternateBounds"/>
                    </mxGeometry>
                </mxCell>
                <mxCell id="S4Rdwj9bRPX_2X4X4qKj-261" style="shape=partialRectangle;html=1;whiteSpace=wrap;connectable=0;overflow=hidden;fillColor=none;top=0;left=0;bottom=0;right=0;pointerEvents=1;fontSize=17;" vertex="1" parent="S4Rdwj9bRPX_2X4X4qKj-255">
                    <mxGeometry x="120" width="60" height="40" as="geometry">
                        <mxRectangle width="60" height="40" as="alternateBounds"/>
                    </mxGeometry>
                </mxCell>
                <mxCell id="S4Rdwj9bRPX_2X4X4qKj-257" value="" style="shape=table;startSize=0;container=1;collapsible=0;childLayout=tableLayout;fontSize=17;" vertex="1" parent="S4Rdwj9bRPX_2X4X4qKj-1">
                    <mxGeometry x="-160" y="545" width="60" height="40" as="geometry"/>
                </mxCell>
                <mxCell id="S4Rdwj9bRPX_2X4X4qKj-258" value="" style="shape=partialRectangle;collapsible=0;dropTarget=0;pointerEvents=0;fillColor=none;top=0;left=0;bottom=0;right=0;points=[[0,0.5],[1,0.5]];portConstraint=eastwest;fontSize=17;" vertex="1" parent="S4Rdwj9bRPX_2X4X4qKj-257">
                    <mxGeometry width="60" height="40" as="geometry"/>
                </mxCell>
                <mxCell id="S4Rdwj9bRPX_2X4X4qKj-259" value="" style="shape=partialRectangle;html=1;whiteSpace=wrap;connectable=0;overflow=hidden;fillColor=none;top=0;left=0;bottom=0;right=0;pointerEvents=1;fontSize=17;" vertex="1" parent="S4Rdwj9bRPX_2X4X4qKj-258">
                    <mxGeometry width="60" height="40" as="geometry">
                        <mxRectangle width="60" height="40" as="alternateBounds"/>
                    </mxGeometry>
                </mxCell>
                <mxCell id="S4Rdwj9bRPX_2X4X4qKj-262" value="" style="shape=table;startSize=0;container=1;collapsible=0;childLayout=tableLayout;fontSize=17;" vertex="1" parent="S4Rdwj9bRPX_2X4X4qKj-1">
                    <mxGeometry x="-20" y="545" width="180" height="40" as="geometry"/>
                </mxCell>
                <mxCell id="S4Rdwj9bRPX_2X4X4qKj-263" value="" style="shape=partialRectangle;collapsible=0;dropTarget=0;pointerEvents=0;fillColor=none;top=0;left=0;bottom=0;right=0;points=[[0,0.5],[1,0.5]];portConstraint=eastwest;fontSize=17;" vertex="1" parent="S4Rdwj9bRPX_2X4X4qKj-262">
                    <mxGeometry width="180" height="40" as="geometry"/>
                </mxCell>
                <mxCell id="S4Rdwj9bRPX_2X4X4qKj-264" style="shape=partialRectangle;html=1;whiteSpace=wrap;connectable=0;overflow=hidden;fillColor=none;top=0;left=0;bottom=0;right=0;pointerEvents=1;fontSize=17;" vertex="1" parent="S4Rdwj9bRPX_2X4X4qKj-263">
                    <mxGeometry width="60" height="40" as="geometry">
                        <mxRectangle width="60" height="40" as="alternateBounds"/>
                    </mxGeometry>
                </mxCell>
                <mxCell id="S4Rdwj9bRPX_2X4X4qKj-265" value="" style="shape=partialRectangle;html=1;whiteSpace=wrap;connectable=0;overflow=hidden;fillColor=none;top=0;left=0;bottom=0;right=0;pointerEvents=1;fontSize=17;" vertex="1" parent="S4Rdwj9bRPX_2X4X4qKj-263">
                    <mxGeometry x="60" width="60" height="40" as="geometry">
                        <mxRectangle width="60" height="40" as="alternateBounds"/>
                    </mxGeometry>
                </mxCell>
                <mxCell id="S4Rdwj9bRPX_2X4X4qKj-266" value="1" style="shape=partialRectangle;html=1;whiteSpace=wrap;connectable=0;overflow=hidden;fillColor=#fff2cc;top=0;left=0;bottom=0;right=0;pointerEvents=1;fontSize=17;strokeColor=#d6b656;" vertex="1" parent="S4Rdwj9bRPX_2X4X4qKj-263">
                    <mxGeometry x="120" width="60" height="40" as="geometry">
                        <mxRectangle width="60" height="40" as="alternateBounds"/>
                    </mxGeometry>
                </mxCell>
                <mxCell id="S4Rdwj9bRPX_2X4X4qKj-267" value="" style="shape=table;startSize=0;container=1;collapsible=0;childLayout=tableLayout;fontSize=17;" vertex="1" parent="S4Rdwj9bRPX_2X4X4qKj-1">
                    <mxGeometry x="40" y="545" width="60" height="40" as="geometry"/>
                </mxCell>
                <mxCell id="S4Rdwj9bRPX_2X4X4qKj-268" value="" style="shape=partialRectangle;collapsible=0;dropTarget=0;pointerEvents=0;fillColor=none;top=0;left=0;bottom=0;right=0;points=[[0,0.5],[1,0.5]];portConstraint=eastwest;fontSize=17;" vertex="1" parent="S4Rdwj9bRPX_2X4X4qKj-267">
                    <mxGeometry width="60" height="40" as="geometry"/>
                </mxCell>
                <mxCell id="S4Rdwj9bRPX_2X4X4qKj-269" value="" style="shape=partialRectangle;html=1;whiteSpace=wrap;connectable=0;overflow=hidden;fillColor=none;top=0;left=0;bottom=0;right=0;pointerEvents=1;fontSize=17;" vertex="1" parent="S4Rdwj9bRPX_2X4X4qKj-268">
                    <mxGeometry width="60" height="40" as="geometry">
                        <mxRectangle width="60" height="40" as="alternateBounds"/>
                    </mxGeometry>
                </mxCell>
                <mxCell id="S4Rdwj9bRPX_2X4X4qKj-270" value="" style="shape=table;startSize=0;container=1;collapsible=0;childLayout=tableLayout;fontSize=17;" vertex="1" parent="S4Rdwj9bRPX_2X4X4qKj-1">
                    <mxGeometry x="190" y="630" width="180" height="40" as="geometry"/>
                </mxCell>
                <mxCell id="S4Rdwj9bRPX_2X4X4qKj-271" value="" style="shape=partialRectangle;collapsible=0;dropTarget=0;pointerEvents=0;fillColor=none;top=0;left=0;bottom=0;right=0;points=[[0,0.5],[1,0.5]];portConstraint=eastwest;fontSize=17;" vertex="1" parent="S4Rdwj9bRPX_2X4X4qKj-270">
                    <mxGeometry width="180" height="40" as="geometry"/>
                </mxCell>
                <mxCell id="S4Rdwj9bRPX_2X4X4qKj-272" style="shape=partialRectangle;html=1;whiteSpace=wrap;connectable=0;overflow=hidden;fillColor=none;top=0;left=0;bottom=0;right=0;pointerEvents=1;fontSize=17;" vertex="1" parent="S4Rdwj9bRPX_2X4X4qKj-271">
                    <mxGeometry width="60" height="40" as="geometry">
                        <mxRectangle width="60" height="40" as="alternateBounds"/>
                    </mxGeometry>
                </mxCell>
                <mxCell id="S4Rdwj9bRPX_2X4X4qKj-273" value="" style="shape=partialRectangle;html=1;whiteSpace=wrap;connectable=0;overflow=hidden;fillColor=none;top=0;left=0;bottom=0;right=0;pointerEvents=1;fontSize=17;" vertex="1" parent="S4Rdwj9bRPX_2X4X4qKj-271">
                    <mxGeometry x="60" width="60" height="40" as="geometry">
                        <mxRectangle width="60" height="40" as="alternateBounds"/>
                    </mxGeometry>
                </mxCell>
                <mxCell id="S4Rdwj9bRPX_2X4X4qKj-274" style="shape=partialRectangle;html=1;whiteSpace=wrap;connectable=0;overflow=hidden;fillColor=none;top=0;left=0;bottom=0;right=0;pointerEvents=1;fontSize=17;" vertex="1" parent="S4Rdwj9bRPX_2X4X4qKj-271">
                    <mxGeometry x="120" width="60" height="40" as="geometry">
                        <mxRectangle width="60" height="40" as="alternateBounds"/>
                    </mxGeometry>
                </mxCell>
                <mxCell id="S4Rdwj9bRPX_2X4X4qKj-275" value="" style="shape=table;startSize=0;container=1;collapsible=0;childLayout=tableLayout;fontSize=17;" vertex="1" parent="S4Rdwj9bRPX_2X4X4qKj-1">
                    <mxGeometry x="250" y="630" width="60" height="40" as="geometry"/>
                </mxCell>
                <mxCell id="S4Rdwj9bRPX_2X4X4qKj-276" value="" style="shape=partialRectangle;collapsible=0;dropTarget=0;pointerEvents=0;fillColor=none;top=0;left=0;bottom=0;right=0;points=[[0,0.5],[1,0.5]];portConstraint=eastwest;fontSize=17;" vertex="1" parent="S4Rdwj9bRPX_2X4X4qKj-275">
                    <mxGeometry width="60" height="40" as="geometry"/>
                </mxCell>
                <mxCell id="S4Rdwj9bRPX_2X4X4qKj-277" value="1" style="shape=partialRectangle;html=1;whiteSpace=wrap;connectable=0;overflow=hidden;fillColor=#fff2cc;top=0;left=0;bottom=0;right=0;pointerEvents=1;fontSize=17;strokeColor=#d6b656;" vertex="1" parent="S4Rdwj9bRPX_2X4X4qKj-276">
                    <mxGeometry width="60" height="40" as="geometry">
                        <mxRectangle width="60" height="40" as="alternateBounds"/>
                    </mxGeometry>
                </mxCell>
                <mxCell id="S4Rdwj9bRPX_2X4X4qKj-278" value="" style="shape=table;startSize=0;container=1;collapsible=0;childLayout=tableLayout;fontSize=17;" vertex="1" parent="S4Rdwj9bRPX_2X4X4qKj-1">
                    <mxGeometry x="390" y="630" width="180" height="40" as="geometry"/>
                </mxCell>
                <mxCell id="S4Rdwj9bRPX_2X4X4qKj-279" value="" style="shape=partialRectangle;collapsible=0;dropTarget=0;pointerEvents=0;fillColor=none;top=0;left=0;bottom=0;right=0;points=[[0,0.5],[1,0.5]];portConstraint=eastwest;fontSize=17;" vertex="1" parent="S4Rdwj9bRPX_2X4X4qKj-278">
                    <mxGeometry width="180" height="40" as="geometry"/>
                </mxCell>
                <mxCell id="S4Rdwj9bRPX_2X4X4qKj-280" style="shape=partialRectangle;html=1;whiteSpace=wrap;connectable=0;overflow=hidden;fillColor=none;top=0;left=0;bottom=0;right=0;pointerEvents=1;fontSize=17;" vertex="1" parent="S4Rdwj9bRPX_2X4X4qKj-279">
                    <mxGeometry width="60" height="40" as="geometry">
                        <mxRectangle width="60" height="40" as="alternateBounds"/>
                    </mxGeometry>
                </mxCell>
                <mxCell id="S4Rdwj9bRPX_2X4X4qKj-281" value="" style="shape=partialRectangle;html=1;whiteSpace=wrap;connectable=0;overflow=hidden;fillColor=none;top=0;left=0;bottom=0;right=0;pointerEvents=1;fontSize=17;" vertex="1" parent="S4Rdwj9bRPX_2X4X4qKj-279">
                    <mxGeometry x="60" width="60" height="40" as="geometry">
                        <mxRectangle width="60" height="40" as="alternateBounds"/>
                    </mxGeometry>
                </mxCell>
                <mxCell id="S4Rdwj9bRPX_2X4X4qKj-282" value="1" style="shape=partialRectangle;html=1;whiteSpace=wrap;connectable=0;overflow=hidden;fillColor=#fff2cc;top=0;left=0;bottom=0;right=0;pointerEvents=1;fontSize=17;strokeColor=#d6b656;" vertex="1" parent="S4Rdwj9bRPX_2X4X4qKj-279">
                    <mxGeometry x="120" width="60" height="40" as="geometry">
                        <mxRectangle width="60" height="40" as="alternateBounds"/>
                    </mxGeometry>
                </mxCell>
                <mxCell id="S4Rdwj9bRPX_2X4X4qKj-283" value="" style="shape=table;startSize=0;container=1;collapsible=0;childLayout=tableLayout;fontSize=17;fillColor=#fff2cc;strokeColor=#d6b656;" vertex="1" parent="S4Rdwj9bRPX_2X4X4qKj-1">
                    <mxGeometry x="450" y="630" width="60" height="40" as="geometry"/>
                </mxCell>
                <mxCell id="S4Rdwj9bRPX_2X4X4qKj-284" value="" style="shape=partialRectangle;collapsible=0;dropTarget=0;pointerEvents=0;fillColor=none;top=0;left=0;bottom=0;right=0;points=[[0,0.5],[1,0.5]];portConstraint=eastwest;fontSize=17;" vertex="1" parent="S4Rdwj9bRPX_2X4X4qKj-283">
                    <mxGeometry width="60" height="40" as="geometry"/>
                </mxCell>
                <mxCell id="S4Rdwj9bRPX_2X4X4qKj-285" value="1" style="shape=partialRectangle;html=1;whiteSpace=wrap;connectable=0;overflow=hidden;fillColor=none;top=0;left=0;bottom=0;right=0;pointerEvents=1;fontSize=17;" vertex="1" parent="S4Rdwj9bRPX_2X4X4qKj-284">
                    <mxGeometry width="60" height="40" as="geometry">
                        <mxRectangle width="60" height="40" as="alternateBounds"/>
                    </mxGeometry>
                </mxCell>
                <mxCell id="S4Rdwj9bRPX_2X4X4qKj-286" value="" style="shape=table;startSize=0;container=1;collapsible=0;childLayout=tableLayout;fontSize=17;" vertex="1" parent="S4Rdwj9bRPX_2X4X4qKj-1">
                    <mxGeometry x="470" y="545" width="180" height="40" as="geometry"/>
                </mxCell>
                <mxCell id="S4Rdwj9bRPX_2X4X4qKj-287" value="" style="shape=partialRectangle;collapsible=0;dropTarget=0;pointerEvents=0;fillColor=none;top=0;left=0;bottom=0;right=0;points=[[0,0.5],[1,0.5]];portConstraint=eastwest;fontSize=17;" vertex="1" parent="S4Rdwj9bRPX_2X4X4qKj-286">
                    <mxGeometry width="180" height="40" as="geometry"/>
                </mxCell>
                <mxCell id="S4Rdwj9bRPX_2X4X4qKj-288" value="1" style="shape=partialRectangle;html=1;whiteSpace=wrap;connectable=0;overflow=hidden;fillColor=#fff2cc;top=0;left=0;bottom=0;right=0;pointerEvents=1;fontSize=17;strokeColor=#d6b656;" vertex="1" parent="S4Rdwj9bRPX_2X4X4qKj-287">
                    <mxGeometry width="60" height="40" as="geometry">
                        <mxRectangle width="60" height="40" as="alternateBounds"/>
                    </mxGeometry>
                </mxCell>
                <mxCell id="S4Rdwj9bRPX_2X4X4qKj-289" value="" style="shape=partialRectangle;html=1;whiteSpace=wrap;connectable=0;overflow=hidden;fillColor=none;top=0;left=0;bottom=0;right=0;pointerEvents=1;fontSize=17;" vertex="1" parent="S4Rdwj9bRPX_2X4X4qKj-287">
                    <mxGeometry x="60" width="60" height="40" as="geometry">
                        <mxRectangle width="60" height="40" as="alternateBounds"/>
                    </mxGeometry>
                </mxCell>
                <mxCell id="S4Rdwj9bRPX_2X4X4qKj-290" style="shape=partialRectangle;html=1;whiteSpace=wrap;connectable=0;overflow=hidden;fillColor=none;top=0;left=0;bottom=0;right=0;pointerEvents=1;fontSize=17;" vertex="1" parent="S4Rdwj9bRPX_2X4X4qKj-287">
                    <mxGeometry x="120" width="60" height="40" as="geometry">
                        <mxRectangle width="60" height="40" as="alternateBounds"/>
                    </mxGeometry>
                </mxCell>
                <mxCell id="S4Rdwj9bRPX_2X4X4qKj-291" value="" style="shape=table;startSize=0;container=1;collapsible=0;childLayout=tableLayout;fontSize=17;" vertex="1" parent="S4Rdwj9bRPX_2X4X4qKj-1">
                    <mxGeometry x="530" y="545" width="60" height="40" as="geometry"/>
                </mxCell>
                <mxCell id="S4Rdwj9bRPX_2X4X4qKj-292" value="" style="shape=partialRectangle;collapsible=0;dropTarget=0;pointerEvents=0;fillColor=none;top=0;left=0;bottom=0;right=0;points=[[0,0.5],[1,0.5]];portConstraint=eastwest;fontSize=17;" vertex="1" parent="S4Rdwj9bRPX_2X4X4qKj-291">
                    <mxGeometry width="60" height="40" as="geometry"/>
                </mxCell>
                <mxCell id="S4Rdwj9bRPX_2X4X4qKj-293" value="" style="shape=partialRectangle;html=1;whiteSpace=wrap;connectable=0;overflow=hidden;fillColor=none;top=0;left=0;bottom=0;right=0;pointerEvents=1;fontSize=17;" vertex="1" parent="S4Rdwj9bRPX_2X4X4qKj-292">
                    <mxGeometry width="60" height="40" as="geometry">
                        <mxRectangle width="60" height="40" as="alternateBounds"/>
                    </mxGeometry>
                </mxCell>
                <mxCell id="S4Rdwj9bRPX_2X4X4qKj-294" value="" style="shape=table;startSize=0;container=1;collapsible=0;childLayout=tableLayout;fontSize=17;" vertex="1" parent="S4Rdwj9bRPX_2X4X4qKj-1">
                    <mxGeometry x="670" y="545" width="180" height="40" as="geometry"/>
                </mxCell>
                <mxCell id="S4Rdwj9bRPX_2X4X4qKj-295" value="" style="shape=partialRectangle;collapsible=0;dropTarget=0;pointerEvents=0;fillColor=none;top=0;left=0;bottom=0;right=0;points=[[0,0.5],[1,0.5]];portConstraint=eastwest;fontSize=17;" vertex="1" parent="S4Rdwj9bRPX_2X4X4qKj-294">
                    <mxGeometry width="180" height="40" as="geometry"/>
                </mxCell>
                <mxCell id="S4Rdwj9bRPX_2X4X4qKj-296" value="1" style="shape=partialRectangle;html=1;whiteSpace=wrap;connectable=0;overflow=hidden;fillColor=#fff2cc;top=0;left=0;bottom=0;right=0;pointerEvents=1;fontSize=17;strokeColor=#d6b656;" vertex="1" parent="S4Rdwj9bRPX_2X4X4qKj-295">
                    <mxGeometry width="60" height="40" as="geometry">
                        <mxRectangle width="60" height="40" as="alternateBounds"/>
                    </mxGeometry>
                </mxCell>
                <mxCell id="S4Rdwj9bRPX_2X4X4qKj-297" value="" style="shape=partialRectangle;html=1;whiteSpace=wrap;connectable=0;overflow=hidden;fillColor=none;top=0;left=0;bottom=0;right=0;pointerEvents=1;fontSize=17;" vertex="1" parent="S4Rdwj9bRPX_2X4X4qKj-295">
                    <mxGeometry x="60" width="60" height="40" as="geometry">
                        <mxRectangle width="60" height="40" as="alternateBounds"/>
                    </mxGeometry>
                </mxCell>
                <mxCell id="S4Rdwj9bRPX_2X4X4qKj-298" value="1" style="shape=partialRectangle;html=1;whiteSpace=wrap;connectable=0;overflow=hidden;fillColor=#fff2cc;top=0;left=0;bottom=0;right=0;pointerEvents=1;fontSize=17;strokeColor=#d6b656;" vertex="1" parent="S4Rdwj9bRPX_2X4X4qKj-295">
                    <mxGeometry x="120" width="60" height="40" as="geometry">
                        <mxRectangle width="60" height="40" as="alternateBounds"/>
                    </mxGeometry>
                </mxCell>
                <mxCell id="S4Rdwj9bRPX_2X4X4qKj-299" value="" style="shape=table;startSize=0;container=1;collapsible=0;childLayout=tableLayout;fontSize=17;" vertex="1" parent="S4Rdwj9bRPX_2X4X4qKj-1">
                    <mxGeometry x="730" y="545" width="60" height="40" as="geometry"/>
                </mxCell>
                <mxCell id="S4Rdwj9bRPX_2X4X4qKj-300" value="" style="shape=partialRectangle;collapsible=0;dropTarget=0;pointerEvents=0;fillColor=none;top=0;left=0;bottom=0;right=0;points=[[0,0.5],[1,0.5]];portConstraint=eastwest;fontSize=17;" vertex="1" parent="S4Rdwj9bRPX_2X4X4qKj-299">
                    <mxGeometry width="60" height="40" as="geometry"/>
                </mxCell>
                <mxCell id="S4Rdwj9bRPX_2X4X4qKj-301" value="" style="shape=partialRectangle;html=1;whiteSpace=wrap;connectable=0;overflow=hidden;fillColor=none;top=0;left=0;bottom=0;right=0;pointerEvents=1;fontSize=17;" vertex="1" parent="S4Rdwj9bRPX_2X4X4qKj-300">
                    <mxGeometry width="60" height="40" as="geometry">
                        <mxRectangle width="60" height="40" as="alternateBounds"/>
                    </mxGeometry>
                </mxCell>
                <mxCell id="S4Rdwj9bRPX_2X4X4qKj-302" value="" style="shape=table;startSize=0;container=1;collapsible=0;childLayout=tableLayout;fontSize=17;" vertex="1" parent="S4Rdwj9bRPX_2X4X4qKj-1">
                    <mxGeometry x="910" y="610" width="180" height="40" as="geometry"/>
                </mxCell>
                <mxCell id="S4Rdwj9bRPX_2X4X4qKj-303" value="" style="shape=partialRectangle;collapsible=0;dropTarget=0;pointerEvents=0;fillColor=none;top=0;left=0;bottom=0;right=0;points=[[0,0.5],[1,0.5]];portConstraint=eastwest;fontSize=17;" vertex="1" parent="S4Rdwj9bRPX_2X4X4qKj-302">
                    <mxGeometry width="180" height="40" as="geometry"/>
                </mxCell>
                <mxCell id="S4Rdwj9bRPX_2X4X4qKj-304" value="1" style="shape=partialRectangle;html=1;whiteSpace=wrap;connectable=0;overflow=hidden;fillColor=#fff2cc;top=0;left=0;bottom=0;right=0;pointerEvents=1;fontSize=17;strokeColor=#d6b656;" vertex="1" parent="S4Rdwj9bRPX_2X4X4qKj-303">
                    <mxGeometry width="60" height="40" as="geometry">
                        <mxRectangle width="60" height="40" as="alternateBounds"/>
                    </mxGeometry>
                </mxCell>
                <mxCell id="S4Rdwj9bRPX_2X4X4qKj-305" value="" style="shape=partialRectangle;html=1;whiteSpace=wrap;connectable=0;overflow=hidden;fillColor=none;top=0;left=0;bottom=0;right=0;pointerEvents=1;fontSize=17;" vertex="1" parent="S4Rdwj9bRPX_2X4X4qKj-303">
                    <mxGeometry x="60" width="60" height="40" as="geometry">
                        <mxRectangle width="60" height="40" as="alternateBounds"/>
                    </mxGeometry>
                </mxCell>
                <mxCell id="S4Rdwj9bRPX_2X4X4qKj-306" style="shape=partialRectangle;html=1;whiteSpace=wrap;connectable=0;overflow=hidden;fillColor=none;top=0;left=0;bottom=0;right=0;pointerEvents=1;fontSize=17;" vertex="1" parent="S4Rdwj9bRPX_2X4X4qKj-303">
                    <mxGeometry x="120" width="60" height="40" as="geometry">
                        <mxRectangle width="60" height="40" as="alternateBounds"/>
                    </mxGeometry>
                </mxCell>
                <mxCell id="S4Rdwj9bRPX_2X4X4qKj-307" value="" style="shape=table;startSize=0;container=1;collapsible=0;childLayout=tableLayout;fontSize=17;fillColor=#fff2cc;strokeColor=#d6b656;" vertex="1" parent="S4Rdwj9bRPX_2X4X4qKj-1">
                    <mxGeometry x="970" y="610" width="60" height="40" as="geometry"/>
                </mxCell>
                <mxCell id="S4Rdwj9bRPX_2X4X4qKj-308" value="" style="shape=partialRectangle;collapsible=0;dropTarget=0;pointerEvents=0;fillColor=none;top=0;left=0;bottom=0;right=0;points=[[0,0.5],[1,0.5]];portConstraint=eastwest;fontSize=17;" vertex="1" parent="S4Rdwj9bRPX_2X4X4qKj-307">
                    <mxGeometry width="60" height="40" as="geometry"/>
                </mxCell>
                <mxCell id="S4Rdwj9bRPX_2X4X4qKj-309" value="1" style="shape=partialRectangle;html=1;whiteSpace=wrap;connectable=0;overflow=hidden;fillColor=none;top=0;left=0;bottom=0;right=0;pointerEvents=1;fontSize=17;" vertex="1" parent="S4Rdwj9bRPX_2X4X4qKj-308">
                    <mxGeometry width="60" height="40" as="geometry">
                        <mxRectangle width="60" height="40" as="alternateBounds"/>
                    </mxGeometry>
                </mxCell>
                <mxCell id="S4Rdwj9bRPX_2X4X4qKj-310" value="" style="shape=table;startSize=0;container=1;collapsible=0;childLayout=tableLayout;fontSize=17;fillColor=#fff2cc;strokeColor=#d6b656;" vertex="1" parent="S4Rdwj9bRPX_2X4X4qKj-1">
                    <mxGeometry x="1110" y="610" width="180" height="40" as="geometry"/>
                </mxCell>
                <mxCell id="S4Rdwj9bRPX_2X4X4qKj-311" value="" style="shape=partialRectangle;collapsible=0;dropTarget=0;pointerEvents=0;fillColor=none;top=0;left=0;bottom=0;right=0;points=[[0,0.5],[1,0.5]];portConstraint=eastwest;fontSize=17;" vertex="1" parent="S4Rdwj9bRPX_2X4X4qKj-310">
                    <mxGeometry width="180" height="40" as="geometry"/>
                </mxCell>
                <mxCell id="S4Rdwj9bRPX_2X4X4qKj-312" value="1" style="shape=partialRectangle;html=1;whiteSpace=wrap;connectable=0;overflow=hidden;fillColor=none;top=0;left=0;bottom=0;right=0;pointerEvents=1;fontSize=17;" vertex="1" parent="S4Rdwj9bRPX_2X4X4qKj-311">
                    <mxGeometry width="60" height="40" as="geometry">
                        <mxRectangle width="60" height="40" as="alternateBounds"/>
                    </mxGeometry>
                </mxCell>
                <mxCell id="S4Rdwj9bRPX_2X4X4qKj-313" value="" style="shape=partialRectangle;html=1;whiteSpace=wrap;connectable=0;overflow=hidden;fillColor=none;top=0;left=0;bottom=0;right=0;pointerEvents=1;fontSize=17;" vertex="1" parent="S4Rdwj9bRPX_2X4X4qKj-311">
                    <mxGeometry x="60" width="60" height="40" as="geometry">
                        <mxRectangle width="60" height="40" as="alternateBounds"/>
                    </mxGeometry>
                </mxCell>
                <mxCell id="S4Rdwj9bRPX_2X4X4qKj-314" value="1" style="shape=partialRectangle;html=1;whiteSpace=wrap;connectable=0;overflow=hidden;fillColor=none;top=0;left=0;bottom=0;right=0;pointerEvents=1;fontSize=17;" vertex="1" parent="S4Rdwj9bRPX_2X4X4qKj-311">
                    <mxGeometry x="120" width="60" height="40" as="geometry">
                        <mxRectangle width="60" height="40" as="alternateBounds"/>
                    </mxGeometry>
                </mxCell>
                <mxCell id="S4Rdwj9bRPX_2X4X4qKj-315" value="" style="shape=table;startSize=0;container=1;collapsible=0;childLayout=tableLayout;fontSize=17;fillColor=#fff2cc;strokeColor=#d6b656;" vertex="1" parent="S4Rdwj9bRPX_2X4X4qKj-1">
                    <mxGeometry x="1170" y="610" width="60" height="40" as="geometry"/>
                </mxCell>
                <mxCell id="S4Rdwj9bRPX_2X4X4qKj-316" value="" style="shape=partialRectangle;collapsible=0;dropTarget=0;pointerEvents=0;fillColor=none;top=0;left=0;bottom=0;right=0;points=[[0,0.5],[1,0.5]];portConstraint=eastwest;fontSize=17;" vertex="1" parent="S4Rdwj9bRPX_2X4X4qKj-315">
                    <mxGeometry width="60" height="40" as="geometry"/>
                </mxCell>
                <mxCell id="S4Rdwj9bRPX_2X4X4qKj-317" value="1" style="shape=partialRectangle;html=1;whiteSpace=wrap;connectable=0;overflow=hidden;fillColor=none;top=0;left=0;bottom=0;right=0;pointerEvents=1;fontSize=17;" vertex="1" parent="S4Rdwj9bRPX_2X4X4qKj-316">
                    <mxGeometry width="60" height="40" as="geometry">
                        <mxRectangle width="60" height="40" as="alternateBounds"/>
                    </mxGeometry>
                </mxCell>
                <mxCell id="S4Rdwj9bRPX_2X4X4qKj-318" style="edgeStyle=none;html=1;fontSize=17;" edge="1" parent="S4Rdwj9bRPX_2X4X4qKj-1" source="S4Rdwj9bRPX_2X4X4qKj-178" target="S4Rdwj9bRPX_2X4X4qKj-258">
                    <mxGeometry relative="1" as="geometry"/>
                </mxCell>
                <mxCell id="S4Rdwj9bRPX_2X4X4qKj-326" value="dont" style="edgeLabel;html=1;align=center;verticalAlign=middle;resizable=0;points=[];fontSize=17;" vertex="1" connectable="0" parent="S4Rdwj9bRPX_2X4X4qKj-318">
                    <mxGeometry x="-0.3814" y="2" relative="1" as="geometry">
                        <mxPoint as="offset"/>
                    </mxGeometry>
                </mxCell>
                <mxCell id="S4Rdwj9bRPX_2X4X4qKj-319" style="edgeStyle=none;html=1;entryX=0.557;entryY=-0.031;entryDx=0;entryDy=0;entryPerimeter=0;fontSize=17;" edge="1" parent="S4Rdwj9bRPX_2X4X4qKj-1" source="S4Rdwj9bRPX_2X4X4qKj-178" target="S4Rdwj9bRPX_2X4X4qKj-268">
                    <mxGeometry relative="1" as="geometry"/>
                </mxCell>
                <mxCell id="S4Rdwj9bRPX_2X4X4qKj-327" value="Place" style="edgeLabel;html=1;align=center;verticalAlign=middle;resizable=0;points=[];fontSize=17;" vertex="1" connectable="0" parent="S4Rdwj9bRPX_2X4X4qKj-319">
                    <mxGeometry x="-0.1368" relative="1" as="geometry">
                        <mxPoint x="-1" as="offset"/>
                    </mxGeometry>
                </mxCell>
                <mxCell id="S4Rdwj9bRPX_2X4X4qKj-320" style="edgeStyle=none;html=1;fontSize=17;" edge="1" parent="S4Rdwj9bRPX_2X4X4qKj-1" source="S4Rdwj9bRPX_2X4X4qKj-238" target="S4Rdwj9bRPX_2X4X4qKj-276">
                    <mxGeometry relative="1" as="geometry"/>
                </mxCell>
                <mxCell id="S4Rdwj9bRPX_2X4X4qKj-328" value="dont" style="edgeLabel;html=1;align=center;verticalAlign=middle;resizable=0;points=[];fontSize=17;" vertex="1" connectable="0" parent="S4Rdwj9bRPX_2X4X4qKj-320">
                    <mxGeometry x="0.0387" relative="1" as="geometry">
                        <mxPoint as="offset"/>
                    </mxGeometry>
                </mxCell>
                <mxCell id="S4Rdwj9bRPX_2X4X4qKj-321" style="edgeStyle=none;html=1;fontSize=17;" edge="1" parent="S4Rdwj9bRPX_2X4X4qKj-1" source="S4Rdwj9bRPX_2X4X4qKj-241" target="S4Rdwj9bRPX_2X4X4qKj-284">
                    <mxGeometry relative="1" as="geometry"/>
                </mxCell>
                <mxCell id="S4Rdwj9bRPX_2X4X4qKj-329" value="place" style="edgeLabel;html=1;align=center;verticalAlign=middle;resizable=0;points=[];fontSize=17;" vertex="1" connectable="0" parent="S4Rdwj9bRPX_2X4X4qKj-321">
                    <mxGeometry x="-0.2354" y="-1" relative="1" as="geometry">
                        <mxPoint as="offset"/>
                    </mxGeometry>
                </mxCell>
                <mxCell id="S4Rdwj9bRPX_2X4X4qKj-322" style="edgeStyle=none;html=1;fontSize=17;" edge="1" parent="S4Rdwj9bRPX_2X4X4qKj-1" source="S4Rdwj9bRPX_2X4X4qKj-246" target="S4Rdwj9bRPX_2X4X4qKj-292">
                    <mxGeometry relative="1" as="geometry"/>
                </mxCell>
                <mxCell id="S4Rdwj9bRPX_2X4X4qKj-323" style="edgeStyle=none;html=1;entryX=0.582;entryY=-0.031;entryDx=0;entryDy=0;entryPerimeter=0;fontSize=17;" edge="1" parent="S4Rdwj9bRPX_2X4X4qKj-1" source="S4Rdwj9bRPX_2X4X4qKj-249" target="S4Rdwj9bRPX_2X4X4qKj-300">
                    <mxGeometry relative="1" as="geometry"/>
                </mxCell>
                <mxCell id="S4Rdwj9bRPX_2X4X4qKj-324" style="edgeStyle=none;html=1;fontSize=17;" edge="1" parent="S4Rdwj9bRPX_2X4X4qKj-1" source="S4Rdwj9bRPX_2X4X4qKj-190" target="S4Rdwj9bRPX_2X4X4qKj-308">
                    <mxGeometry relative="1" as="geometry"/>
                </mxCell>
                <mxCell id="S4Rdwj9bRPX_2X4X4qKj-325" style="edgeStyle=none;html=1;fontSize=17;" edge="1" parent="S4Rdwj9bRPX_2X4X4qKj-1" source="S4Rdwj9bRPX_2X4X4qKj-190" target="S4Rdwj9bRPX_2X4X4qKj-316">
                    <mxGeometry relative="1" as="geometry"/>
                </mxCell>
                <mxCell id="S4Rdwj9bRPX_2X4X4qKj-330" value="" style="shape=table;startSize=0;container=1;collapsible=0;childLayout=tableLayout;labelBackgroundColor=#CCCCFF;fontSize=17;strokeColor=default;gradientColor=none;" vertex="1" parent="S4Rdwj9bRPX_2X4X4qKj-1">
                    <mxGeometry x="520" y="130" width="180" height="40" as="geometry"/>
                </mxCell>
                <mxCell id="S4Rdwj9bRPX_2X4X4qKj-331" value="" style="shape=partialRectangle;collapsible=0;dropTarget=0;pointerEvents=0;fillColor=none;top=0;left=0;bottom=0;right=0;points=[[0,0.5],[1,0.5]];portConstraint=eastwest;labelBackgroundColor=#CCCCFF;fontSize=17;strokeColor=default;" vertex="1" parent="S4Rdwj9bRPX_2X4X4qKj-330">
                    <mxGeometry width="180" height="40" as="geometry"/>
                </mxCell>
                <mxCell id="S4Rdwj9bRPX_2X4X4qKj-332" value="" style="shape=partialRectangle;html=1;whiteSpace=wrap;connectable=0;overflow=hidden;fillColor=none;top=0;left=0;bottom=0;right=0;pointerEvents=1;labelBackgroundColor=#CCCCFF;fontSize=17;strokeColor=default;" vertex="1" parent="S4Rdwj9bRPX_2X4X4qKj-331">
                    <mxGeometry width="60" height="40" as="geometry">
                        <mxRectangle width="60" height="40" as="alternateBounds"/>
                    </mxGeometry>
                </mxCell>
                <mxCell id="S4Rdwj9bRPX_2X4X4qKj-333" value="" style="shape=partialRectangle;html=1;whiteSpace=wrap;connectable=0;overflow=hidden;fillColor=none;top=0;left=0;bottom=0;right=0;pointerEvents=1;labelBackgroundColor=#CCCCFF;fontSize=17;strokeColor=default;" vertex="1" parent="S4Rdwj9bRPX_2X4X4qKj-331">
                    <mxGeometry x="60" width="60" height="40" as="geometry">
                        <mxRectangle width="60" height="40" as="alternateBounds"/>
                    </mxGeometry>
                </mxCell>
                <mxCell id="S4Rdwj9bRPX_2X4X4qKj-334" value="" style="shape=partialRectangle;html=1;whiteSpace=wrap;connectable=0;overflow=hidden;fillColor=none;top=0;left=0;bottom=0;right=0;pointerEvents=1;labelBackgroundColor=#CCCCFF;fontSize=17;strokeColor=default;" vertex="1" parent="S4Rdwj9bRPX_2X4X4qKj-331">
                    <mxGeometry x="120" width="60" height="40" as="geometry">
                        <mxRectangle width="60" height="40" as="alternateBounds"/>
                    </mxGeometry>
                </mxCell>
                <mxCell id="hNoMLRVOmwYwj-FemtZh-0" value="&lt;b&gt;Place holders represent a level&lt;/b&gt;" style="text;html=1;strokeColor=#b85450;fillColor=#f8cecc;align=center;verticalAlign=middle;whiteSpace=wrap;rounded=0;fontSize=19;" vertex="1" parent="S4Rdwj9bRPX_2X4X4qKj-1">
                    <mxGeometry x="180" y="810" width="570" height="30" as="geometry"/>
                </mxCell>
                <mxCell id="hNoMLRVOmwYwj-FemtZh-1" value="&lt;b&gt;1st Box&lt;/b&gt;" style="text;html=1;strokeColor=#b85450;fillColor=#f8cecc;align=center;verticalAlign=middle;whiteSpace=wrap;rounded=0;fontSize=19;" vertex="1" parent="S4Rdwj9bRPX_2X4X4qKj-1">
                    <mxGeometry x="-280" y="320" width="320" height="30" as="geometry"/>
                </mxCell>
                <mxCell id="hNoMLRVOmwYwj-FemtZh-2" value="&lt;b&gt;2nd Box&lt;/b&gt;" style="text;html=1;strokeColor=#b85450;fillColor=#f8cecc;align=center;verticalAlign=middle;whiteSpace=wrap;rounded=0;fontSize=19;" vertex="1" parent="S4Rdwj9bRPX_2X4X4qKj-1">
                    <mxGeometry x="-440" y="445" width="320" height="30" as="geometry"/>
                </mxCell>
                <mxCell id="hNoMLRVOmwYwj-FemtZh-3" value="&lt;b&gt;3rd Box&lt;/b&gt;" style="text;html=1;strokeColor=#b85450;fillColor=#f8cecc;align=center;verticalAlign=middle;whiteSpace=wrap;rounded=0;fontSize=19;" vertex="1" parent="S4Rdwj9bRPX_2X4X4qKj-1">
                    <mxGeometry x="-570" y="555" width="320" height="30" as="geometry"/>
                </mxCell>
                <mxCell id="hNoMLRVOmwYwj-FemtZh-5" style="edgeStyle=none;html=1;entryX=0.383;entryY=1.166;entryDx=0;entryDy=0;entryPerimeter=0;fontSize=17;" edge="1" parent="S4Rdwj9bRPX_2X4X4qKj-1" source="hNoMLRVOmwYwj-FemtZh-4" target="S4Rdwj9bRPX_2X4X4qKj-284">
                    <mxGeometry relative="1" as="geometry"/>
                </mxCell>
                <mxCell id="hNoMLRVOmwYwj-FemtZh-7" style="edgeStyle=none;html=1;entryX=0.235;entryY=1.125;entryDx=0;entryDy=0;entryPerimeter=0;fontSize=17;" edge="1" parent="S4Rdwj9bRPX_2X4X4qKj-1" source="hNoMLRVOmwYwj-FemtZh-4" target="S4Rdwj9bRPX_2X4X4qKj-300">
                    <mxGeometry relative="1" as="geometry"/>
                </mxCell>
                <mxCell id="hNoMLRVOmwYwj-FemtZh-8" style="edgeStyle=none;html=1;entryX=0;entryY=0.5;entryDx=0;entryDy=0;fontSize=17;" edge="1" parent="S4Rdwj9bRPX_2X4X4qKj-1" source="hNoMLRVOmwYwj-FemtZh-4" target="S4Rdwj9bRPX_2X4X4qKj-308">
                    <mxGeometry relative="1" as="geometry"/>
                </mxCell>
                <mxCell id="hNoMLRVOmwYwj-FemtZh-4" value="Answers" style="text;html=1;strokeColor=none;fillColor=none;align=center;verticalAlign=middle;whiteSpace=wrap;rounded=0;labelBackgroundColor=#CCCCFF;fontSize=17;" vertex="1" parent="S4Rdwj9bRPX_2X4X4qKj-1">
                    <mxGeometry x="560" y="730" width="340" height="30" as="geometry"/>
                </mxCell>
            </root>
        </mxGraphModel>
    </diagram>
</mxfile>